<svg xmlns="http://www.w3.org/2000/svg" xmlns:xlink="http://www.w3.org/1999/xlink" width="500" zoomAndPan="magnify" viewBox="0 0 375 374.999991" height="500" preserveAspectRatio="xMidYMid meet" version="1.0"><defs><clipPath id="e11b5bc8c3"><path d="M 94.851562 94.851562 L 280 94.851562 L 280 201 L 94.851562 201 Z M 94.851562 94.851562 " clip-rule="nonzero"/></clipPath><clipPath id="6a41dd3813"><path d="M 189 187 L 280.101562 187 L 280.101562 280.101562 L 189 280.101562 Z M 189 187 " clip-rule="nonzero"/></clipPath><clipPath id="4010106883"><path d="M 178 131 L 199 131 L 199 151 L 178 151 Z M 178 131 " clip-rule="nonzero"/></clipPath><clipPath id="c6a623bc67"><path d="M 154.433594 126.636719 L 217.222656 121.449219 L 220.804688 164.800781 L 158.015625 169.992188 Z M 154.433594 126.636719 " clip-rule="nonzero"/></clipPath><clipPath id="bbefafdcc6"><path d="M 154.433594 126.636719 L 219.464844 121.265625 L 224.34375 180.3125 L 159.3125 185.6875 Z M 154.433594 126.636719 " clip-rule="nonzero"/></clipPath><clipPath id="c29cc768c9"><path d="M 171 124 L 206 124 L 206 151 L 171 151 Z M 171 124 " clip-rule="nonzero"/></clipPath><clipPath id="d9dced3849"><path d="M 154.433594 126.636719 L 217.222656 121.449219 L 220.804688 164.800781 L 158.015625 169.992188 Z M 154.433594 126.636719 " clip-rule="nonzero"/></clipPath><clipPath id="0f17b3c2c3"><path d="M 154.433594 126.636719 L 219.464844 121.265625 L 224.34375 180.3125 L 159.3125 185.6875 Z M 154.433594 126.636719 " clip-rule="nonzero"/></clipPath><clipPath id="12f1661951"><path d="M 158 164 L 221 164 L 221 170 L 158 170 Z M 158 164 " clip-rule="nonzero"/></clipPath><clipPath id="b2d508dbad"><path d="M 154.433594 126.636719 L 217.222656 121.449219 L 220.804688 164.800781 L 158.015625 169.992188 Z M 154.433594 126.636719 " clip-rule="nonzero"/></clipPath><clipPath id="aa178accbc"><path d="M 154.433594 126.636719 L 219.464844 121.265625 L 224.34375 180.3125 L 159.3125 185.6875 Z M 154.433594 126.636719 " clip-rule="nonzero"/></clipPath><clipPath id="2997d72a85"><path d="M 158.503906 169.59375 L 222.734375 164.285156 L 223.875 178.085938 L 159.644531 183.394531 Z M 158.503906 169.59375 " clip-rule="nonzero"/></clipPath><clipPath id="0866810dae"><path d="M 180 160 L 203 160 L 203 170 L 180 170 Z M 180 160 " clip-rule="nonzero"/></clipPath><clipPath id="6d59a2f06e"><path d="M 154.433594 126.636719 L 217.222656 121.449219 L 220.804688 164.800781 L 158.015625 169.992188 Z M 154.433594 126.636719 " clip-rule="nonzero"/></clipPath><clipPath id="c1ba90a02d"><path d="M 154.433594 126.636719 L 219.464844 121.265625 L 224.34375 180.3125 L 159.3125 185.6875 Z M 154.433594 126.636719 " clip-rule="nonzero"/></clipPath><clipPath id="ff64cdc778"><path d="M 179 160 L 204 160 L 204 170 L 179 170 Z M 179 160 " clip-rule="nonzero"/></clipPath><clipPath id="1c51a0e1f4"><path d="M 154.433594 126.636719 L 217.222656 121.449219 L 220.804688 164.800781 L 158.015625 169.992188 Z M 154.433594 126.636719 " clip-rule="nonzero"/></clipPath><clipPath id="c704689ea2"><path d="M 154.433594 126.636719 L 219.464844 121.265625 L 224.34375 180.3125 L 159.3125 185.6875 Z M 154.433594 126.636719 " clip-rule="nonzero"/></clipPath><clipPath id="d4c26afce0"><path d="M 163 141 L 218 141 L 218 165 L 163 165 Z M 163 141 " clip-rule="nonzero"/></clipPath><clipPath id="10943caf9d"><path d="M 154.433594 126.636719 L 217.222656 121.449219 L 220.804688 164.800781 L 158.015625 169.992188 Z M 154.433594 126.636719 " clip-rule="nonzero"/></clipPath><clipPath id="7d61b21868"><path d="M 154.433594 126.636719 L 219.464844 121.265625 L 224.34375 180.3125 L 159.3125 185.6875 Z M 154.433594 126.636719 " clip-rule="nonzero"/></clipPath><clipPath id="73787de500"><path d="M 162 140 L 218 140 L 218 166 L 162 166 Z M 162 140 " clip-rule="nonzero"/></clipPath><clipPath id="9b7f5d33d7"><path d="M 154.433594 126.636719 L 217.222656 121.449219 L 220.804688 164.800781 L 158.015625 169.992188 Z M 154.433594 126.636719 " clip-rule="nonzero"/></clipPath><clipPath id="ca928d2655"><path d="M 154.433594 126.636719 L 219.464844 121.265625 L 224.34375 180.3125 L 159.3125 185.6875 Z M 154.433594 126.636719 " clip-rule="nonzero"/></clipPath><clipPath id="2fc423c65b"><path d="M 165 144 L 189 144 L 189 163 L 165 163 Z M 165 144 " clip-rule="nonzero"/></clipPath><clipPath id="ade9a6cd3c"><path d="M 154.433594 126.636719 L 217.222656 121.449219 L 220.804688 164.800781 L 158.015625 169.992188 Z M 154.433594 126.636719 " clip-rule="nonzero"/></clipPath><clipPath id="b6f6a6fe84"><path d="M 154.433594 126.636719 L 219.464844 121.265625 L 224.34375 180.3125 L 159.3125 185.6875 Z M 154.433594 126.636719 " clip-rule="nonzero"/></clipPath><clipPath id="d655341e2a"><path d="M 165 144 L 189 144 L 189 164 L 165 164 Z M 165 144 " clip-rule="nonzero"/></clipPath><clipPath id="2dc7e31fa2"><path d="M 154.433594 126.636719 L 217.222656 121.449219 L 220.804688 164.800781 L 158.015625 169.992188 Z M 154.433594 126.636719 " clip-rule="nonzero"/></clipPath><clipPath id="a6a96ffc1e"><path d="M 154.433594 126.636719 L 219.464844 121.265625 L 224.34375 180.3125 L 159.3125 185.6875 Z M 154.433594 126.636719 " clip-rule="nonzero"/></clipPath><clipPath id="557c463a33"><path d="M 189 142 L 215 142 L 215 161 L 189 161 Z M 189 142 " clip-rule="nonzero"/></clipPath><clipPath id="b7e89363ee"><path d="M 154.433594 126.636719 L 217.222656 121.449219 L 220.804688 164.800781 L 158.015625 169.992188 Z M 154.433594 126.636719 " clip-rule="nonzero"/></clipPath><clipPath id="93a0996675"><path d="M 154.433594 126.636719 L 219.464844 121.265625 L 224.34375 180.3125 L 159.3125 185.6875 Z M 154.433594 126.636719 " clip-rule="nonzero"/></clipPath><clipPath id="a076115d29"><path d="M 189 142 L 216 142 L 216 162 L 189 162 Z M 189 142 " clip-rule="nonzero"/></clipPath><clipPath id="44e510dd4e"><path d="M 154.433594 126.636719 L 217.222656 121.449219 L 220.804688 164.800781 L 158.015625 169.992188 Z M 154.433594 126.636719 " clip-rule="nonzero"/></clipPath><clipPath id="88ce6fa4f4"><path d="M 154.433594 126.636719 L 219.464844 121.265625 L 224.34375 180.3125 L 159.3125 185.6875 Z M 154.433594 126.636719 " clip-rule="nonzero"/></clipPath></defs><g clip-path="url(#e11b5bc8c3)"><path fill="#ff7f50" d="M 187.464844 94.917969 C 162.800781 94.933594 139.160156 104.785156 121.789062 122.289062 L 177.09375 127.132812 L 113.847656 131.433594 C 107.578125 139.683594 102.738281 148.925781 99.527344 158.777344 L 128.003906 161.273438 L 98.078125 163.308594 C 95.925781 171.214844 94.828125 179.367188 94.824219 187.554688 C 94.855469 191.945312 95.199219 196.332031 95.851562 200.667969 C 127.742188 178.671875 167.0625 165.667969 209.621094 165.675781 C 234.273438 165.667969 257.832031 170.042969 279.503906 177.984375 C 278.460938 168.199219 275.867188 158.640625 271.824219 149.675781 L 235.875 147.234375 L 269.210938 144.308594 C 264.015625 134.511719 257.101562 125.730469 248.796875 118.378906 L 180.78125 115.285156 L 240.519531 111.828125 C 224.988281 100.882812 206.464844 94.976562 187.464844 94.917969 Z M 187.464844 94.917969 " fill-opacity="1" fill-rule="nonzero"/></g><path fill="#006811" d="M 221.480469 171.214844 C 173.652344 171.214844 130.820312 191.332031 101.988281 223.074219 C 105.433594 231.378906 110.066406 239.140625 115.75 246.113281 C 142.160156 205.058594 190.046875 177.621094 244.730469 177.621094 C 256.210938 177.621094 267.382812 178.839844 278.121094 181.125 C 260.542969 174.726562 241.449219 171.214844 221.480469 171.214844 Z M 221.480469 171.214844 " fill-opacity="1" fill-rule="nonzero"/><path fill="#00943c" d="M 254 181.960938 C 198.324219 181.960938 151.296875 216.832031 136.1875 264.648438 C 144.257812 270.003906 153.121094 274.058594 162.449219 276.664062 C 170.058594 224.625 217.453125 184.539062 274.804688 184.539062 C 276.542969 184.539062 278.273438 184.578125 279.996094 184.652344 L 279.996094 184.566406 C 271.617188 182.867188 262.921875 181.960938 254.003906 181.960938 " fill-opacity="1" fill-rule="nonzero"/><g clip-path="url(#6a41dd3813)"><path fill="#63b32e" d="M 280.089844 187.8125 C 229.773438 188.667969 189.269531 227.34375 189.269531 274.933594 C 189.269531 276.683594 189.332031 278.40625 189.4375 280.125 C 200.65625 279.886719 211.734375 277.605469 222.132812 273.40625 C 221.375 269.292969 220.976562 265.058594 220.976562 260.738281 C 220.976562 226.378906 246.113281 197.570312 279.996094 189.679688 C 280.035156 189.058594 280.0625 188.4375 280.089844 187.8125 Z M 280.089844 187.8125 " fill-opacity="1" fill-rule="nonzero"/></g><path fill="#63b32e" d="M 279.777344 194.109375 C 256.515625 202.949219 240.097656 224.398438 240.097656 249.472656 C 240.097656 253.96875 240.640625 258.347656 241.640625 262.558594 C 263.851562 246.503906 277.816406 221.441406 279.777344 194.109375 Z M 279.777344 194.109375 " fill-opacity="1" fill-rule="nonzero"/><g clip-path="url(#4010106883)"><g clip-path="url(#c6a623bc67)"><g clip-path="url(#bbefafdcc6)"><path fill="#fbf88b" d="M 198.140625 139.933594 C 198.582031 145.238281 194.636719 149.890625 189.335938 150.332031 C 184.03125 150.769531 179.378906 146.824219 178.9375 141.523438 C 178.5 136.21875 182.445312 131.566406 187.746094 131.125 C 193.050781 130.6875 197.703125 134.632812 198.140625 139.933594 " fill-opacity="1" fill-rule="nonzero"/></g></g></g><g clip-path="url(#c29cc768c9)"><g clip-path="url(#d9dced3849)"><g clip-path="url(#0f17b3c2c3)"><path fill="#3a1e16" d="M 178.988281 132.132812 C 178.09375 131.292969 177.199219 130.453125 176.304688 129.617188 C 175.933594 129.269531 175.429688 129.867188 175.796875 130.214844 C 176.691406 131.050781 177.585938 131.890625 178.480469 132.730469 C 178.847656 133.074219 179.355469 132.476562 178.988281 132.132812 Z M 175.183594 141.4375 C 173.960938 141.539062 172.738281 141.640625 171.515625 141.742188 C 171.011719 141.785156 171.078125 142.566406 171.582031 142.523438 C 172.800781 142.421875 174.023438 142.320312 175.246094 142.222656 C 175.75 142.179688 175.6875 141.398438 175.183594 141.4375 Z M 193.144531 128.910156 C 193.503906 127.734375 193.859375 126.5625 194.214844 125.390625 C 194.363281 124.90625 193.589844 124.765625 193.445312 125.242188 C 193.085938 126.417969 192.730469 127.589844 192.375 128.765625 C 192.230469 129.246094 193 129.386719 193.144531 128.910156 Z M 183.132812 129.527344 C 182.589844 128.429688 182.046875 127.328125 181.503906 126.230469 C 181.28125 125.785156 180.542969 126.046875 180.765625 126.5 C 181.308594 127.601562 181.855469 128.699219 182.398438 129.796875 C 182.621094 130.246094 183.359375 129.980469 183.132812 129.527344 Z M 175.90625 136.601562 C 174.726562 136.257812 173.550781 135.914062 172.375 135.570312 C 171.890625 135.429688 171.746094 136.203125 172.226562 136.34375 C 173.40625 136.6875 174.582031 137.03125 175.757812 137.371094 C 176.242188 137.515625 176.386719 136.742188 175.90625 136.601562 Z M 200.355469 135.300781 C 201.460938 134.769531 202.566406 134.234375 203.671875 133.703125 C 204.121094 133.488281 203.855469 132.746094 203.398438 132.96875 C 202.296875 133.5 201.191406 134.03125 200.085938 134.5625 C 199.636719 134.78125 199.898438 135.519531 200.355469 135.300781 Z M 197.003906 131.199219 C 197.75 130.226562 198.492188 129.25 199.238281 128.277344 C 199.542969 127.875 198.945312 127.367188 198.640625 127.769531 C 197.894531 128.742188 197.152344 129.71875 196.40625 130.691406 C 196.101562 131.09375 196.695312 131.601562 197.003906 131.199219 Z M 201.75 140.03125 C 202.972656 139.929688 204.195312 139.828125 205.417969 139.726562 C 205.921875 139.6875 205.855469 138.90625 205.351562 138.945312 C 204.132812 139.046875 202.910156 139.148438 201.6875 139.25 C 201.183594 139.289062 201.246094 140.074219 201.75 140.03125 Z M 186.804688 124.472656 C 186.90625 125.695312 187.007812 126.917969 187.105469 128.140625 C 187.148438 128.644531 187.929688 128.578125 187.890625 128.074219 C 187.789062 126.855469 187.6875 125.632812 187.585938 124.410156 C 187.542969 123.90625 186.761719 123.96875 186.804688 124.472656 Z M 198.535156 139.902344 C 198.878906 144.628906 195.847656 149.121094 191.238281 150.386719 C 187.234375 151.484375 182.878906 149.984375 180.429688 146.625 C 177.933594 143.199219 177.914062 138.457031 180.320312 134.988281 C 182.699219 131.5625 187.140625 129.945312 191.164062 131.050781 C 195.222656 132.164062 198.148438 135.726562 198.535156 139.902344 C 198.578125 140.40625 197.796875 140.46875 197.75 139.96875 C 197.351562 135.640625 193.984375 132.082031 189.648438 131.550781 C 185.785156 131.078125 181.953125 133.175781 180.242188 136.660156 C 178.535156 140.132812 179.222656 144.445312 181.941406 147.203125 C 184.671875 149.96875 188.917969 150.738281 192.449219 149.109375 C 195.945312 147.492188 198.03125 143.78125 197.75 139.96875 C 197.714844 139.464844 198.496094 139.398438 198.535156 139.902344 " fill-opacity="1" fill-rule="nonzero"/></g></g></g><g clip-path="url(#12f1661951)"><g clip-path="url(#b2d508dbad)"><g clip-path="url(#aa178accbc)"><g clip-path="url(#2997d72a85)"><path fill="#3a1e16" d="M 222.039062 171.53125 C 221.375 172.441406 220.3125 172.964844 219.296875 173.386719 C 216.925781 174.371094 214.414062 174.953125 211.855469 175.160156 C 211.714844 175.101562 211.550781 175.125 211.429688 175.285156 C 211.050781 175.796875 210.578125 176.199219 209.988281 176.445312 C 209.359375 176.710938 208.824219 176.664062 208.164062 176.671875 C 207.621094 176.675781 207.253906 177.109375 206.746094 177.261719 C 206.144531 177.449219 205.484375 177.421875 204.859375 177.394531 C 204.769531 177.339844 204.65625 177.316406 204.527344 177.359375 C 195.292969 180.441406 185.28125 180.824219 175.75 179.039062 C 175.664062 179.023438 175.589844 179.03125 175.527344 179.058594 C 173.546875 179.578125 171.507812 179.851562 169.460938 179.863281 C 168.433594 179.871094 167.40625 179.808594 166.386719 179.679688 C 165.433594 179.5625 164.398438 179.457031 163.632812 178.820312 C 163.628906 178.820312 163.628906 178.820312 163.628906 178.820312 C 163.53125 178.726562 163.394531 178.679688 163.226562 178.75 C 162.683594 178.980469 160.535156 179.4375 160.890625 178.175781 C 161.023438 177.710938 161.546875 177.46875 161.945312 177.277344 C 162.40625 177.054688 162.875 176.84375 163.339844 176.628906 C 163.351562 176.625 163.355469 176.617188 163.367188 176.613281 C 163.644531 176.484375 163.660156 176.089844 163.449219 175.914062 C 163.367188 175.835938 163.25 175.800781 163.113281 175.84375 C 162.195312 175.9375 160.980469 175.789062 160.164062 175.347656 C 159.332031 174.894531 160.136719 174.355469 160.734375 174.324219 C 161.21875 174.300781 161.710938 174.472656 162.164062 174.617188 C 162.550781 174.738281 162.824219 174.132812 162.503906 173.902344 C 162.03125 173.5625 161.574219 173.199219 161.144531 172.804688 C 160.84375 172.527344 159.785156 171.375 160.898438 171.402344 C 161.960938 171.433594 163.113281 172.335938 163.945312 172.90625 C 163.960938 172.917969 163.976562 172.925781 163.996094 172.933594 C 164.089844 173 164.210938 173.027344 164.347656 172.976562 C 170.9375 170.6875 177.859375 169.675781 184.773438 168.96875 C 191.816406 168.246094 198.894531 167.574219 205.972656 167.332031 C 209.683594 167.207031 213.703125 166.910156 217.285156 168.097656 C 217.328125 168.113281 217.371094 168.117188 217.414062 168.117188 C 217.570312 168.140625 217.734375 168.082031 217.828125 167.90625 C 218.441406 166.75 219.484375 165.824219 220.75 165.449219 C 221.144531 165.332031 221.640625 165.261719 221.785156 165.726562 C 221.910156 166.125 221.601562 166.546875 221.394531 166.871094 C 221 167.492188 220.542969 168.082031 219.972656 168.546875 C 219.726562 168.667969 219.714844 169.035156 219.90625 169.214844 C 220 169.3125 220.136719 169.363281 220.273438 169.316406 C 220.894531 169.292969 221.585938 169.335938 222.0625 169.789062 C 222.617188 170.316406 222.441406 170.976562 222.039062 171.53125 Z M 223.207031 170.191406 C 222.976562 169.164062 222.089844 168.707031 221.148438 168.558594 C 221.695312 167.988281 222.167969 167.316406 222.464844 166.625 C 222.792969 165.867188 222.65625 164.867188 221.765625 164.59375 C 220.910156 164.328125 219.867188 164.847656 219.160156 165.292969 C 218.375 165.78125 217.742188 166.460938 217.265625 167.246094 C 214.292969 166.347656 211.132812 166.410156 208.054688 166.464844 C 204.335938 166.53125 200.625 166.761719 196.921875 167.050781 C 189.796875 167.617188 182.621094 168.15625 175.570312 169.347656 C 171.738281 169.996094 167.945312 170.882812 164.265625 172.144531 C 163.558594 171.65625 162.828125 171.171875 162.019531 170.871094 C 161.382812 170.632812 160.5 170.332031 159.945312 170.878906 C 159.082031 171.722656 159.816406 172.734375 160.679688 173.515625 C 160.445312 173.523438 160.210938 173.5625 159.976562 173.648438 C 159.402344 173.859375 158.859375 174.382812 158.957031 175.042969 C 159.074219 175.789062 159.769531 176.101562 160.414062 176.296875 C 160.769531 176.40625 161.125 176.496094 161.488281 176.566406 C 160.621094 177.019531 159.863281 177.648438 160.058594 178.640625 C 160.347656 180.089844 162.195312 179.984375 163.300781 179.597656 C 164.015625 180.105469 164.863281 180.285156 165.730469 180.414062 C 166.816406 180.574219 167.917969 180.660156 169.015625 180.675781 C 171.269531 180.710938 173.503906 180.417969 175.683594 179.855469 C 185.28125 181.640625 195.355469 181.25 204.65625 178.175781 C 204.691406 178.1875 204.730469 178.199219 204.773438 178.199219 C 205.460938 178.230469 206.152344 178.25 206.824219 178.085938 C 207.136719 178.007812 207.417969 177.882812 207.699219 177.730469 C 208.117188 177.511719 208.359375 177.53125 208.8125 177.523438 C 210.023438 177.5 211.167969 176.902344 211.929688 175.972656 C 213.632812 175.835938 215.320312 175.535156 216.964844 175.0625 C 218.464844 174.632812 220.046875 174.109375 221.363281 173.242188 C 222.324219 172.613281 223.484375 171.457031 223.207031 170.191406 " fill-opacity="1" fill-rule="nonzero"/></g></g></g></g><g clip-path="url(#0866810dae)"><g clip-path="url(#6d59a2f06e)"><g clip-path="url(#c1ba90a02d)"><path fill="#56bdff" d="M 202.460938 172.316406 L 180.085938 174.167969 L 180.261719 176.292969 L 202.636719 174.445312 Z M 202.460938 172.316406 L 180.085938 174.167969 L 182.90625 166.960938 L 188.941406 166.460938 L 188.503906 161.179688 L 191.972656 160.894531 L 192.40625 166.175781 L 198.921875 165.636719 L 202.460938 172.316406 " fill-opacity="1" fill-rule="nonzero"/></g></g></g><g clip-path="url(#ff64cdc778)"><g clip-path="url(#1c51a0e1f4)"><g clip-path="url(#c704689ea2)"><path fill="#3a1e16" d="M 195.0625 174.675781 C 191.050781 175.007812 187.039062 175.339844 183.023438 175.671875 C 182.222656 175.738281 181.421875 175.800781 180.621094 175.867188 C 180.585938 175.421875 180.546875 174.972656 180.511719 174.523438 C 182.894531 174.328125 185.277344 174.128906 187.660156 173.933594 C 191.671875 173.601562 195.683594 173.269531 199.699219 172.9375 C 200.5 172.871094 201.300781 172.808594 202.101562 172.742188 C 202.136719 173.1875 202.175781 173.636719 202.210938 174.085938 C 199.828125 174.28125 197.445312 174.480469 195.0625 174.675781 Z M 183.179688 167.328125 C 185.109375 167.171875 187.042969 167.011719 188.972656 166.851562 C 189.183594 166.832031 189.347656 166.640625 189.332031 166.429688 C 189.195312 164.796875 189.0625 163.167969 188.925781 161.539062 C 189.824219 161.464844 190.71875 161.390625 191.613281 161.316406 C 191.746094 162.949219 191.882812 164.578125 192.015625 166.207031 C 192.035156 166.417969 192.226562 166.582031 192.441406 166.566406 C 194.527344 166.390625 196.613281 166.21875 198.699219 166.046875 C 199.746094 168.023438 200.792969 170 201.839844 171.976562 C 199.519531 172.167969 197.203125 172.359375 194.886719 172.550781 C 190.875 172.882812 186.863281 173.210938 182.847656 173.542969 C 182.125 173.605469 181.402344 173.664062 180.679688 173.722656 C 181.515625 171.59375 182.347656 169.460938 183.179688 167.328125 Z M 202.851562 172.285156 C 202.84375 172.222656 202.824219 172.164062 202.789062 172.113281 C 202.785156 172.105469 202.785156 172.097656 202.78125 172.09375 C 201.601562 169.863281 200.445312 167.679688 199.265625 165.453125 C 199.175781 165.28125 199.027344 165.246094 198.859375 165.246094 C 196.828125 165.414062 194.796875 165.582031 192.765625 165.75 C 192.632812 164.121094 192.496094 162.492188 192.363281 160.863281 C 192.34375 160.652344 192.152344 160.488281 191.9375 160.503906 C 190.78125 160.601562 189.628906 160.695312 188.472656 160.789062 C 188.261719 160.808594 188.09375 161.003906 188.113281 161.214844 C 188.246094 162.84375 188.382812 164.472656 188.515625 166.101562 C 186.636719 166.257812 184.753906 166.414062 182.871094 166.566406 C 182.742188 166.578125 182.601562 166.664062 182.550781 166.789062 C 181.613281 169.191406 180.671875 171.59375 179.734375 173.996094 C 179.730469 174.007812 179.726562 174.015625 179.722656 174.027344 C 179.703125 174.078125 179.691406 174.136719 179.695312 174.199219 C 179.753906 174.90625 179.8125 175.617188 179.871094 176.324219 C 179.890625 176.535156 180.082031 176.699219 180.296875 176.683594 C 182.808594 176.476562 185.320312 176.265625 187.835938 176.058594 C 191.847656 175.726562 195.859375 175.398438 199.875 175.066406 C 200.804688 174.988281 201.738281 174.910156 202.667969 174.835938 C 202.78125 174.824219 202.867188 174.777344 202.921875 174.707031 C 202.925781 174.703125 202.929688 174.699219 202.9375 174.695312 C 202.9375 174.691406 202.941406 174.6875 202.941406 174.6875 C 203 174.617188 203.035156 174.527344 203.027344 174.410156 C 202.96875 173.703125 202.910156 172.992188 202.851562 172.285156 " fill-opacity="1" fill-rule="nonzero"/></g></g></g><g clip-path="url(#d4c26afce0)"><g clip-path="url(#10943caf9d)"><g clip-path="url(#7d61b21868)"><path fill="#f5f6f5" d="M 165.839844 144.996094 L 211.632812 141.210938 L 217.527344 160.378906 L 163.25 164.863281 L 165.839844 144.996094 " fill-opacity="1" fill-rule="nonzero"/></g></g></g><g clip-path="url(#73787de500)"><g clip-path="url(#9b7f5d33d7)"><g clip-path="url(#ca928d2655)"><path fill="#3a1e16" d="M 165.804688 144.605469 C 165.832031 144.601562 165.863281 144.601562 165.886719 144.597656 C 166.472656 144.496094 167.097656 144.5 167.691406 144.449219 C 168.949219 144.34375 170.207031 144.242188 171.464844 144.136719 C 175.28125 143.824219 179.09375 143.507812 182.90625 143.191406 C 187.3125 142.828125 191.722656 142.464844 196.128906 142.101562 C 199.769531 141.800781 203.410156 141.496094 207.054688 141.195312 C 208.570312 141.070312 210.085938 140.945312 211.601562 140.820312 C 211.765625 140.808594 211.953125 140.914062 212.003906 141.078125 C 212.246094 141.875 212.492188 142.671875 212.738281 143.46875 C 214.457031 149.058594 216.175781 154.652344 217.894531 160.246094 C 217.96875 160.484375 217.824219 160.75 217.558594 160.769531 C 217.527344 160.773438 217.496094 160.773438 217.464844 160.777344 C 216.777344 160.894531 216.042969 160.894531 215.347656 160.953125 C 213.855469 161.078125 212.367188 161.199219 210.878906 161.324219 C 206.359375 161.695312 201.839844 162.070312 197.320312 162.441406 C 192.09375 162.875 186.867188 163.308594 181.640625 163.738281 C 177.320312 164.097656 173 164.453125 168.679688 164.808594 C 166.878906 164.957031 165.082031 165.105469 163.28125 165.253906 C 163.015625 165.277344 162.832031 165.042969 162.863281 164.792969 C 162.972656 163.960938 163.082031 163.125 163.191406 162.292969 C 163.945312 156.503906 164.699219 150.714844 165.453125 144.921875 C 165.519531 144.421875 166.289062 144.570312 166.222656 145.070312 C 166.117188 145.902344 166.007812 146.734375 165.898438 147.566406 C 165.144531 153.355469 164.390625 159.148438 163.636719 164.9375 C 163.496094 164.78125 163.355469 164.628906 163.21875 164.472656 C 163.246094 164.472656 163.285156 164.476562 163.308594 164.464844 C 163.511719 164.394531 163.824219 164.425781 164.039062 164.40625 C 164.503906 164.367188 164.964844 164.328125 165.429688 164.292969 C 166.917969 164.167969 168.410156 164.046875 169.898438 163.921875 C 174.417969 163.546875 178.9375 163.175781 183.453125 162.800781 C 188.679688 162.371094 193.910156 161.9375 199.136719 161.507812 C 203.457031 161.148438 207.777344 160.792969 212.097656 160.433594 C 213.894531 160.285156 215.695312 160.136719 217.496094 159.988281 C 217.382812 160.164062 217.269531 160.339844 217.160156 160.515625 C 216.914062 159.71875 216.667969 158.921875 216.421875 158.125 C 214.703125 152.53125 212.984375 146.941406 211.265625 141.347656 C 211.398438 141.433594 211.53125 141.519531 211.667969 141.601562 C 211.640625 141.605469 211.605469 141.601562 211.585938 141.609375 C 211.417969 141.675781 211.148438 141.644531 210.972656 141.660156 C 210.574219 141.691406 210.179688 141.726562 209.78125 141.757812 C 208.523438 141.863281 207.265625 141.964844 206.007812 142.070312 C 202.191406 142.386719 198.378906 142.699219 194.566406 143.015625 C 190.160156 143.378906 185.75 143.746094 181.34375 144.109375 C 177.703125 144.410156 174.0625 144.710938 170.417969 145.011719 C 168.902344 145.136719 167.386719 145.261719 165.871094 145.386719 C 165.367188 145.429688 165.304688 144.648438 165.804688 144.605469 " fill-opacity="1" fill-rule="nonzero"/></g></g></g><g clip-path="url(#2fc423c65b)"><g clip-path="url(#ade9a6cd3c)"><g clip-path="url(#b6f6a6fe84)"><path fill="#56bdff" d="M 181.972656 156.761719 L 182.078125 161.515625 L 188.523438 160.984375 L 188.285156 156.242188 Z M 166.097656 158.074219 L 165.492188 162.886719 L 171.410156 162.398438 L 171.761719 157.605469 Z M 174.09375 157.414062 L 173.835938 162.195312 L 179.5 161.730469 L 179.527344 156.964844 Z M 181.710938 145.214844 L 181.785156 148.472656 L 187.859375 147.96875 L 187.695312 144.71875 Z M 174.726562 145.792969 L 174.546875 149.070312 L 179.570312 148.65625 L 179.589844 145.390625 Z M 167.5625 146.382812 L 167.148438 149.679688 L 172.378906 149.25 L 172.625 145.964844 Z M 166.925781 151.457031 L 166.375 155.847656 L 171.925781 155.390625 L 172.25 151.019531 Z M 174.453125 150.835938 L 174.214844 155.199219 L 179.539062 154.761719 L 179.5625 150.414062 Z M 187.972656 149.71875 L 188.171875 154.046875 L 181.921875 154.5625 L 181.824219 150.226562 L 187.972656 149.71875 " fill-opacity="1" fill-rule="nonzero"/></g></g></g><g clip-path="url(#d655341e2a)"><g clip-path="url(#2dc7e31fa2)"><g clip-path="url(#a6a96ffc1e)"><path fill="#3a1e16" d="M 187.914062 156.664062 C 187.980469 157.984375 188.046875 159.304688 188.113281 160.625 C 186.230469 160.777344 184.34375 160.933594 182.460938 161.089844 C 182.429688 159.769531 182.398438 158.445312 182.371094 157.125 C 184.21875 156.972656 186.066406 156.816406 187.914062 156.664062 Z M 188.496094 155.910156 C 188.433594 155.867188 188.351562 155.84375 188.25 155.851562 C 186.148438 156.023438 184.042969 156.199219 181.9375 156.371094 C 181.71875 156.390625 181.574219 156.582031 181.582031 156.796875 C 181.617188 158.378906 181.652344 159.964844 181.6875 161.546875 C 181.691406 161.761719 181.90625 161.921875 182.109375 161.90625 C 184.257812 161.730469 186.40625 161.550781 188.558594 161.375 C 188.773438 161.355469 188.925781 161.164062 188.914062 160.949219 C 188.835938 159.371094 188.753906 157.789062 188.675781 156.210938 C 188.667969 156.0625 188.59375 155.964844 188.496094 155.910156 Z M 171.042969 162.035156 C 169.34375 162.175781 167.640625 162.316406 165.941406 162.457031 C 166.109375 161.117188 166.277344 159.777344 166.445312 158.4375 C 168.078125 158.304688 169.707031 158.167969 171.339844 158.035156 C 171.242188 159.367188 171.140625 160.699219 171.042969 162.035156 Z M 171.730469 157.214844 C 169.839844 157.371094 167.953125 157.527344 166.066406 157.683594 C 165.902344 157.695312 165.734375 157.832031 165.710938 158 C 165.511719 159.605469 165.308594 161.210938 165.109375 162.8125 C 165.074219 163.0625 165.257812 163.300781 165.523438 163.277344 C 167.496094 163.113281 169.46875 162.949219 171.441406 162.789062 C 171.597656 162.773438 171.78125 162.640625 171.792969 162.46875 C 171.910156 160.875 172.027344 159.277344 172.148438 157.679688 C 172.148438 157.628906 172.144531 157.585938 172.132812 157.542969 C 172.105469 157.359375 171.964844 157.195312 171.730469 157.214844 Z M 179.132812 157.390625 C 179.125 158.714844 179.121094 160.042969 179.113281 161.367188 C 177.492188 161.5 175.867188 161.636719 174.246094 161.769531 C 174.320312 160.4375 174.394531 159.109375 174.464844 157.777344 C 176.023438 157.648438 177.578125 157.519531 179.132812 157.390625 Z M 179.675781 156.601562 C 179.621094 156.578125 179.5625 156.570312 179.496094 156.574219 C 177.683594 156.722656 175.875 156.875 174.0625 157.023438 C 173.910156 157.035156 173.71875 157.171875 173.710938 157.339844 C 173.625 158.933594 173.535156 160.53125 173.449219 162.125 C 173.433594 162.375 173.585938 162.609375 173.867188 162.585938 C 175.753906 162.429688 177.644531 162.277344 179.53125 162.121094 C 179.757812 162.101562 179.890625 161.910156 179.890625 161.695312 C 179.898438 160.109375 179.910156 158.519531 179.917969 156.933594 C 179.917969 156.746094 179.8125 156.636719 179.675781 156.601562 Z M 187.324219 145.144531 C 187.367188 145.964844 187.40625 146.789062 187.449219 147.609375 C 185.6875 147.753906 183.929688 147.902344 182.167969 148.046875 C 182.148438 147.222656 182.128906 146.398438 182.109375 145.574219 C 183.847656 145.429688 185.585938 145.289062 187.324219 145.144531 Z M 187.90625 144.390625 C 187.84375 144.34375 187.761719 144.320312 187.664062 144.328125 C 185.667969 144.492188 183.671875 144.660156 181.679688 144.824219 C 181.457031 144.839844 181.316406 145.035156 181.320312 145.246094 C 181.34375 146.332031 181.371094 147.417969 181.394531 148.503906 C 181.398438 148.714844 181.617188 148.878906 181.816406 148.863281 C 183.84375 148.695312 185.867188 148.527344 187.894531 148.359375 C 188.109375 148.34375 188.261719 148.148438 188.25 147.9375 C 188.195312 146.855469 188.140625 145.769531 188.085938 144.6875 C 188.078125 144.539062 188.003906 144.441406 187.90625 144.390625 Z M 179.195312 145.816406 C 179.191406 146.640625 179.1875 147.46875 179.183594 148.292969 C 177.773438 148.410156 176.367188 148.527344 174.960938 148.640625 C 175.007812 147.8125 175.050781 146.984375 175.097656 146.152344 C 176.464844 146.042969 177.828125 145.929688 179.195312 145.816406 Z M 179.734375 145.023438 C 179.683594 145.003906 179.625 144.992188 179.554688 145 C 177.9375 145.132812 176.316406 145.265625 174.695312 145.402344 C 174.542969 145.414062 174.351562 145.550781 174.339844 145.71875 C 174.28125 146.8125 174.222656 147.902344 174.164062 148.996094 C 174.148438 149.246094 174.300781 149.484375 174.582031 149.460938 C 176.253906 149.324219 177.929688 149.183594 179.601562 149.046875 C 179.828125 149.027344 179.960938 148.835938 179.960938 148.621094 C 179.96875 147.535156 179.972656 146.445312 179.980469 145.355469 C 179.980469 145.167969 179.871094 145.0625 179.734375 145.023438 Z M 167.597656 149.25 C 167.703125 148.417969 167.808594 147.582031 167.914062 146.746094 C 169.34375 146.628906 170.773438 146.511719 172.203125 146.394531 C 172.140625 147.222656 172.078125 148.054688 172.015625 148.886719 C 170.542969 149.007812 169.070312 149.128906 167.597656 149.25 Z M 167.183594 150.070312 C 168.925781 149.929688 170.667969 149.785156 172.410156 149.640625 C 172.566406 149.628906 172.753906 149.492188 172.765625 149.320312 C 172.847656 148.226562 172.929688 147.132812 173.007812 146.039062 C 173.011719 145.988281 173.007812 145.941406 172.996094 145.898438 C 172.964844 145.71875 172.828125 145.554688 172.589844 145.574219 C 170.90625 145.714844 169.21875 145.851562 167.53125 145.992188 C 167.367188 146.003906 167.199219 146.140625 167.179688 146.308594 C 167.039062 147.410156 166.902344 148.507812 166.765625 149.609375 C 166.734375 149.859375 166.914062 150.09375 167.183594 150.070312 Z M 167.277344 151.824219 C 168.792969 151.699219 170.308594 151.570312 171.824219 151.445312 C 171.738281 152.640625 171.648438 153.832031 171.5625 155.027344 C 169.980469 155.15625 168.402344 155.285156 166.824219 155.417969 C 166.976562 154.21875 167.125 153.019531 167.277344 151.824219 Z M 172.621094 150.953125 C 172.589844 150.769531 172.453125 150.609375 172.214844 150.628906 C 170.441406 150.773438 168.667969 150.921875 166.894531 151.066406 C 166.730469 151.082031 166.5625 151.214844 166.542969 151.386719 C 166.359375 152.847656 166.175781 154.3125 165.992188 155.773438 C 165.960938 156.023438 166.140625 156.261719 166.410156 156.238281 C 168.257812 156.085938 170.109375 155.933594 171.957031 155.78125 C 172.113281 155.765625 172.296875 155.628906 172.308594 155.460938 C 172.417969 154.003906 172.527344 152.546875 172.632812 151.089844 C 172.636719 151.042969 172.632812 150.996094 172.621094 150.953125 Z M 179.167969 150.839844 C 179.164062 152.027344 179.15625 153.210938 179.152344 154.398438 C 177.644531 154.523438 176.136719 154.648438 174.628906 154.773438 C 174.695312 153.582031 174.757812 152.390625 174.824219 151.199219 C 176.273438 151.078125 177.71875 150.960938 179.167969 150.839844 Z M 179.710938 150.050781 C 179.65625 150.027344 179.597656 150.019531 179.53125 150.023438 C 177.828125 150.164062 176.125 150.304688 174.421875 150.445312 C 174.269531 150.457031 174.078125 150.59375 174.066406 150.761719 C 173.988281 152.21875 173.910156 153.671875 173.832031 155.128906 C 173.816406 155.375 173.96875 155.613281 174.25 155.589844 C 176.023438 155.445312 177.796875 155.296875 179.570312 155.152344 C 179.796875 155.132812 179.929688 154.941406 179.929688 154.726562 C 179.9375 153.28125 179.945312 151.832031 179.953125 150.382812 C 179.953125 150.195312 179.847656 150.085938 179.710938 150.050781 Z M 187.601562 150.144531 C 187.652344 151.324219 187.707031 152.507812 187.761719 153.6875 C 185.941406 153.835938 184.125 153.988281 182.304688 154.136719 C 182.277344 152.953125 182.25 151.769531 182.222656 150.585938 C 184.015625 150.441406 185.808594 150.292969 187.601562 150.144531 Z M 188.179688 149.382812 C 188.179688 149.382812 188.175781 149.378906 188.171875 149.378906 C 188.167969 149.378906 188.167969 149.375 188.167969 149.375 C 188.105469 149.339844 188.03125 149.320312 187.941406 149.328125 C 185.890625 149.496094 183.84375 149.667969 181.792969 149.835938 C 181.570312 149.855469 181.429688 150.046875 181.433594 150.257812 C 181.464844 151.703125 181.5 153.152344 181.53125 154.59375 C 181.535156 154.808594 181.753906 154.96875 181.953125 154.953125 C 184.039062 154.78125 186.121094 154.609375 188.203125 154.4375 C 188.417969 154.417969 188.570312 154.226562 188.5625 154.015625 C 188.496094 152.574219 188.429688 151.128906 188.363281 149.6875 C 188.359375 149.535156 188.28125 149.4375 188.179688 149.382812 " fill-opacity="1" fill-rule="nonzero"/></g></g></g><g clip-path="url(#557c463a33)"><g clip-path="url(#b7e89363ee)"><g clip-path="url(#93a0996675)"><path fill="#56bdff" d="M 213.398438 154.167969 L 207.457031 154.65625 L 208.59375 159.324219 L 214.785156 158.8125 Z M 205.125 154.851562 L 199.734375 155.296875 L 200.417969 160 L 206.164062 159.523438 Z M 197.253906 155.5 L 191.210938 156 L 191.753906 160.714844 L 197.929688 160.207031 Z M 210.035156 142.875 L 204.695312 143.316406 L 205.472656 146.515625 L 210.984375 146.058594 Z M 202.59375 143.488281 L 197.734375 143.890625 L 198.285156 147.109375 L 203.308594 146.695312 Z M 195.613281 144.066406 L 189.902344 144.539062 L 190.273438 147.769531 L 196.074219 147.292969 Z M 211.492188 147.777344 L 205.894531 148.242188 L 206.933594 152.496094 L 212.757812 152.015625 Z M 203.691406 148.421875 L 198.617188 148.839844 L 199.320312 153.125 L 204.644531 152.6875 Z M 196.859375 153.328125 L 190.964844 153.816406 L 190.472656 149.515625 L 196.21875 149.039062 L 196.859375 153.328125 " fill-opacity="1" fill-rule="nonzero"/></g></g></g><g clip-path="url(#a076115d29)"><g clip-path="url(#44e510dd4e)"><g clip-path="url(#88ce6fa4f4)"><path fill="#3a1e16" d="M 207.945312 155.011719 C 209.667969 154.867188 211.390625 154.726562 213.113281 154.582031 C 213.5 155.875 213.886719 157.167969 214.269531 158.460938 C 212.480469 158.609375 210.6875 158.757812 208.894531 158.90625 C 208.578125 157.609375 208.261719 156.308594 207.945312 155.011719 Z M 215.152344 158.679688 C 214.691406 157.128906 214.230469 155.578125 213.765625 154.03125 C 213.71875 153.867188 213.53125 153.761719 213.367188 153.773438 C 211.386719 153.9375 209.40625 154.101562 207.425781 154.265625 C 207.148438 154.289062 207.03125 154.550781 207.089844 154.792969 C 207.46875 156.347656 207.847656 157.902344 208.226562 159.460938 C 208.265625 159.625 208.46875 159.730469 208.625 159.714844 C 210.691406 159.546875 212.753906 159.375 214.816406 159.203125 C 215.007812 159.1875 215.117188 159.066406 215.152344 158.921875 C 215.175781 158.851562 215.179688 158.769531 215.152344 158.679688 Z M 205.6875 159.171875 C 204.042969 159.308594 202.398438 159.441406 200.753906 159.578125 C 200.5625 158.269531 200.371094 156.960938 200.183594 155.652344 C 201.726562 155.523438 203.273438 155.394531 204.820312 155.269531 C 205.109375 156.570312 205.398438 157.871094 205.6875 159.171875 Z M 206.535156 159.390625 C 206.1875 157.832031 205.839844 156.273438 205.492188 154.714844 C 205.457031 154.550781 205.246094 154.445312 205.09375 154.457031 C 203.296875 154.609375 201.5 154.757812 199.703125 154.90625 C 199.5 154.921875 199.3125 155.117188 199.34375 155.328125 C 199.570312 156.894531 199.800781 158.464844 200.027344 160.03125 C 200.058594 160.242188 200.226562 160.410156 200.449219 160.390625 C 202.367188 160.234375 204.28125 160.074219 206.199219 159.917969 C 206.449219 159.894531 206.558594 159.691406 206.542969 159.496094 C 206.542969 159.464844 206.542969 159.425781 206.535156 159.390625 Z M 197.480469 159.847656 C 195.6875 159.996094 193.894531 160.144531 192.097656 160.292969 C 191.949219 158.980469 191.796875 157.667969 191.648438 156.355469 C 193.40625 156.210938 195.160156 156.066406 196.917969 155.921875 C 197.105469 157.230469 197.292969 158.539062 197.480469 159.847656 Z M 197.222656 155.109375 C 195.207031 155.277344 193.195312 155.441406 191.179688 155.609375 C 190.972656 155.625 190.796875 155.820312 190.820312 156.03125 C 191 157.605469 191.183594 159.175781 191.363281 160.75 C 191.386719 160.960938 191.566406 161.125 191.785156 161.105469 C 193.84375 160.9375 195.902344 160.765625 197.960938 160.597656 C 198.039062 160.589844 198.101562 160.566406 198.15625 160.527344 C 198.269531 160.464844 198.34375 160.347656 198.320312 160.171875 C 198.09375 158.605469 197.871094 157.035156 197.644531 155.46875 C 197.613281 155.257812 197.441406 155.089844 197.222656 155.109375 Z M 210.46875 145.707031 C 208.90625 145.835938 207.339844 145.96875 205.773438 146.097656 C 205.578125 145.285156 205.378906 144.476562 205.183594 143.667969 C 206.703125 143.542969 208.226562 143.417969 209.75 143.292969 C 209.988281 144.097656 210.230469 144.902344 210.46875 145.707031 Z M 205.105469 146.648438 C 205.144531 146.8125 205.347656 146.917969 205.507812 146.90625 C 207.34375 146.753906 209.179688 146.601562 211.015625 146.449219 C 211.207031 146.433594 211.316406 146.3125 211.347656 146.167969 C 211.375 146.097656 211.378906 146.015625 211.351562 145.925781 C 211.035156 144.863281 210.71875 143.800781 210.402344 142.738281 C 210.351562 142.574219 210.164062 142.46875 210 142.484375 C 208.222656 142.628906 206.441406 142.777344 204.664062 142.925781 C 204.386719 142.945312 204.269531 143.207031 204.328125 143.449219 C 204.585938 144.515625 204.847656 145.582031 205.105469 146.648438 Z M 202.832031 146.339844 C 201.425781 146.457031 200.015625 146.570312 198.609375 146.6875 C 198.46875 145.875 198.332031 145.058594 198.191406 144.246094 C 199.558594 144.132812 200.921875 144.019531 202.289062 143.90625 C 202.46875 144.71875 202.652344 145.527344 202.832031 146.339844 Z M 203.339844 147.085938 C 203.589844 147.0625 203.699219 146.859375 203.6875 146.667969 C 203.6875 146.632812 203.683594 146.597656 203.675781 146.558594 C 203.4375 145.488281 203.199219 144.421875 202.960938 143.351562 C 202.925781 143.1875 202.714844 143.085938 202.5625 143.097656 C 200.941406 143.230469 199.320312 143.367188 197.699219 143.5 C 197.503906 143.515625 197.304688 143.710938 197.34375 143.921875 C 197.527344 144.996094 197.710938 146.066406 197.894531 147.140625 C 197.929688 147.351562 198.09375 147.519531 198.320312 147.5 C 199.992188 147.359375 201.667969 147.222656 203.339844 147.085938 Z M 190.335938 144.894531 C 191.984375 144.757812 193.632812 144.621094 195.277344 144.488281 C 195.394531 145.300781 195.511719 146.117188 195.628906 146.933594 C 193.957031 147.074219 192.289062 147.210938 190.617188 147.347656 C 190.523438 146.53125 190.429688 145.710938 190.335938 144.894531 Z M 190.304688 148.160156 C 192.238281 148 194.171875 147.84375 196.105469 147.683594 C 196.183594 147.675781 196.246094 147.648438 196.300781 147.613281 C 196.414062 147.550781 196.488281 147.429688 196.464844 147.257812 C 196.3125 146.183594 196.15625 145.109375 196.003906 144.035156 C 195.976562 143.824219 195.804688 143.65625 195.582031 143.675781 C 193.675781 143.832031 191.773438 143.988281 189.871094 144.148438 C 189.664062 144.164062 189.488281 144.359375 189.511719 144.570312 C 189.632812 145.648438 189.757812 146.726562 189.878906 147.804688 C 189.90625 148.011719 190.085938 148.179688 190.304688 148.160156 Z M 212.242188 151.664062 C 210.574219 151.800781 208.902344 151.941406 207.230469 152.078125 C 206.949219 150.917969 206.664062 149.753906 206.382812 148.59375 C 207.992188 148.460938 209.601562 148.328125 211.210938 148.195312 C 211.554688 149.351562 211.898438 150.507812 212.242188 151.664062 Z M 212.789062 152.40625 C 212.980469 152.390625 213.089844 152.265625 213.125 152.125 C 213.148438 152.050781 213.152344 151.96875 213.125 151.878906 C 212.703125 150.46875 212.285156 149.054688 211.863281 147.644531 C 211.8125 147.480469 211.625 147.375 211.460938 147.386719 C 209.59375 147.542969 207.730469 147.695312 205.863281 147.847656 C 205.585938 147.871094 205.46875 148.132812 205.527344 148.375 C 205.871094 149.792969 206.21875 151.214844 206.5625 152.632812 C 206.605469 152.796875 206.808594 152.902344 206.964844 152.886719 C 208.90625 152.726562 210.847656 152.566406 212.789062 152.40625 Z M 204.164062 152.332031 C 202.660156 152.457031 201.15625 152.582031 199.648438 152.703125 C 199.457031 151.535156 199.265625 150.367188 199.070312 149.199219 C 200.511719 149.078125 201.949219 148.960938 203.386719 148.839844 C 203.648438 150.003906 203.90625 151.167969 204.164062 152.332031 Z M 204.675781 153.078125 C 204.925781 153.054688 205.035156 152.851562 205.019531 152.660156 C 205.023438 152.625 205.019531 152.589844 205.011719 152.550781 C 204.695312 151.128906 204.378906 149.707031 204.0625 148.289062 C 204.023438 148.121094 203.816406 148.019531 203.660156 148.03125 C 201.96875 148.171875 200.277344 148.3125 198.585938 148.449219 C 198.386719 148.46875 198.191406 148.664062 198.226562 148.875 C 198.460938 150.300781 198.695312 151.730469 198.929688 153.15625 C 198.964844 153.367188 199.128906 153.535156 199.355469 153.515625 C 201.128906 153.371094 202.902344 153.222656 204.675781 153.078125 Z M 190.90625 149.871094 C 192.566406 149.734375 194.226562 149.597656 195.886719 149.460938 C 196.0625 150.632812 196.238281 151.800781 196.410156 152.972656 C 194.710938 153.113281 193.011719 153.253906 191.308594 153.394531 C 191.175781 152.21875 191.042969 151.046875 190.90625 149.871094 Z M 190.996094 154.207031 C 192.960938 154.042969 194.925781 153.882812 196.894531 153.71875 C 196.96875 153.714844 197.03125 153.6875 197.082031 153.65625 C 197.199219 153.59375 197.277344 153.472656 197.25 153.296875 C 197.039062 151.867188 196.824219 150.4375 196.609375 149.007812 C 196.578125 148.796875 196.410156 148.628906 196.183594 148.648438 C 194.269531 148.808594 192.355469 148.964844 190.4375 149.125 C 190.234375 149.140625 190.054688 149.335938 190.082031 149.546875 C 190.246094 150.980469 190.410156 152.414062 190.574219 153.847656 C 190.597656 154.058594 190.777344 154.226562 190.996094 154.207031 " fill-opacity="1" fill-rule="nonzero"/></g></g></g></svg>