<svg xmlns="http://www.w3.org/2000/svg" xmlns:xlink="http://www.w3.org/1999/xlink" width="500" zoomAndPan="magnify" viewBox="0 0 375 374.999991" height="500" preserveAspectRatio="xMidYMid meet" version="1.0"><defs><g/><clipPath id="d891dc567e"><path d="M 28.851562 122.40625 L 147.632812 122.40625 L 147.632812 191 L 28.851562 191 Z M 28.851562 122.40625 " clip-rule="nonzero"/></clipPath><clipPath id="3aff57927d"><path d="M 55 178 L 147.632812 178 L 147.632812 239 L 55 239 Z M 55 178 " clip-rule="nonzero"/></clipPath><clipPath id="ad8d8ce2fe"><path d="M 89 181 L 147.632812 181 L 147.632812 241.1875 L 89 241.1875 Z M 89 181 " clip-rule="nonzero"/></clipPath><clipPath id="ebe199803b"><path d="M 121 185 L 147.632812 185 L 147.632812 230 L 121 230 Z M 121 185 " clip-rule="nonzero"/></clipPath><clipPath id="32631fb31b"><path d="M 82 145 L 96 145 L 96 158 L 82 158 Z M 82 145 " clip-rule="nonzero"/></clipPath><clipPath id="e7b0a25d54"><path d="M 67.007812 142.761719 L 106.746094 139.480469 L 109 166.796875 L 69.265625 170.082031 Z M 67.007812 142.761719 " clip-rule="nonzero"/></clipPath><clipPath id="eb16c69f1c"><path d="M 67.007812 142.761719 L 108.398438 139.34375 L 111.546875 177.421875 L 70.15625 180.84375 Z M 67.007812 142.761719 " clip-rule="nonzero"/></clipPath><clipPath id="3b0693da68"><path d="M 77 141 L 100 141 L 100 159 L 77 159 Z M 77 141 " clip-rule="nonzero"/></clipPath><clipPath id="90c62adc4f"><path d="M 67.007812 142.761719 L 106.746094 139.480469 L 109 166.796875 L 69.265625 170.082031 Z M 67.007812 142.761719 " clip-rule="nonzero"/></clipPath><clipPath id="09ecbd015f"><path d="M 67.007812 142.761719 L 108.398438 139.34375 L 111.546875 177.421875 L 70.15625 180.84375 Z M 67.007812 142.761719 " clip-rule="nonzero"/></clipPath><clipPath id="d8d27f0c4b"><path d="M 70 167 L 109 167 L 109 171 L 70 171 Z M 70 167 " clip-rule="nonzero"/></clipPath><clipPath id="82df9aa4fe"><path d="M 67.007812 142.761719 L 106.746094 139.480469 L 109 166.796875 L 69.265625 170.082031 Z M 67.007812 142.761719 " clip-rule="nonzero"/></clipPath><clipPath id="46ee7aeb8c"><path d="M 67.007812 142.761719 L 108.398438 139.34375 L 111.546875 177.421875 L 70.15625 180.84375 Z M 67.007812 142.761719 " clip-rule="nonzero"/></clipPath><clipPath id="89c37802f6"><path d="M 69 167 L 109 167 L 109 171 L 69 171 Z M 69 167 " clip-rule="nonzero"/></clipPath><clipPath id="9f226e6526"><path d="M 67.007812 142.761719 L 106.746094 139.480469 L 109 166.796875 L 69.265625 170.082031 Z M 67.007812 142.761719 " clip-rule="nonzero"/></clipPath><clipPath id="2138f0d5e3"><path d="M 67.007812 142.761719 L 108.398438 139.34375 L 111.546875 177.421875 L 70.15625 180.84375 Z M 67.007812 142.761719 " clip-rule="nonzero"/></clipPath><clipPath id="29177a9225"><path d="M 69.621094 170.265625 L 110.746094 166.867188 L 111.472656 175.703125 L 70.351562 179.101562 Z M 69.621094 170.265625 " clip-rule="nonzero"/></clipPath><clipPath id="fde276ac8b"><path d="M 83 164 L 98 164 L 98 171 L 83 171 Z M 83 164 " clip-rule="nonzero"/></clipPath><clipPath id="ad438ec762"><path d="M 67.007812 142.761719 L 106.746094 139.480469 L 109 166.796875 L 69.265625 170.082031 Z M 67.007812 142.761719 " clip-rule="nonzero"/></clipPath><clipPath id="7a58cc4ef7"><path d="M 67.007812 142.761719 L 108.398438 139.34375 L 111.546875 177.421875 L 70.15625 180.84375 Z M 67.007812 142.761719 " clip-rule="nonzero"/></clipPath><clipPath id="c55297a66d"><path d="M 83 164 L 99 164 L 99 171 L 83 171 Z M 83 164 " clip-rule="nonzero"/></clipPath><clipPath id="17ec6dc5a6"><path d="M 67.007812 142.761719 L 106.746094 139.480469 L 109 166.796875 L 69.265625 170.082031 Z M 67.007812 142.761719 " clip-rule="nonzero"/></clipPath><clipPath id="8a62ef5347"><path d="M 67.007812 142.761719 L 108.398438 139.34375 L 111.546875 177.421875 L 70.15625 180.84375 Z M 67.007812 142.761719 " clip-rule="nonzero"/></clipPath><clipPath id="3c2ebbcfc4"><path d="M 72 152 L 108 152 L 108 168 L 72 168 Z M 72 152 " clip-rule="nonzero"/></clipPath><clipPath id="ec4903bdbe"><path d="M 67.007812 142.761719 L 106.746094 139.480469 L 109 166.796875 L 69.265625 170.082031 Z M 67.007812 142.761719 " clip-rule="nonzero"/></clipPath><clipPath id="39b566d310"><path d="M 67.007812 142.761719 L 108.398438 139.34375 L 111.546875 177.421875 L 70.15625 180.84375 Z M 67.007812 142.761719 " clip-rule="nonzero"/></clipPath><clipPath id="637a2ad91f"><path d="M 72 151 L 108 151 L 108 168 L 72 168 Z M 72 151 " clip-rule="nonzero"/></clipPath><clipPath id="d64f7bc0fb"><path d="M 67.007812 142.761719 L 106.746094 139.480469 L 109 166.796875 L 69.265625 170.082031 Z M 67.007812 142.761719 " clip-rule="nonzero"/></clipPath><clipPath id="6538ac9298"><path d="M 67.007812 142.761719 L 108.398438 139.34375 L 111.546875 177.421875 L 70.15625 180.84375 Z M 67.007812 142.761719 " clip-rule="nonzero"/></clipPath><clipPath id="9d7a304ae9"><path d="M 74 154 L 89 154 L 89 166 L 74 166 Z M 74 154 " clip-rule="nonzero"/></clipPath><clipPath id="921bb6105f"><path d="M 67.007812 142.761719 L 106.746094 139.480469 L 109 166.796875 L 69.265625 170.082031 Z M 67.007812 142.761719 " clip-rule="nonzero"/></clipPath><clipPath id="aba45deb29"><path d="M 67.007812 142.761719 L 108.398438 139.34375 L 111.546875 177.421875 L 70.15625 180.84375 Z M 67.007812 142.761719 " clip-rule="nonzero"/></clipPath><clipPath id="95eb1e1305"><path d="M 73 154 L 90 154 L 90 167 L 73 167 Z M 73 154 " clip-rule="nonzero"/></clipPath><clipPath id="c31073ad86"><path d="M 67.007812 142.761719 L 106.746094 139.480469 L 109 166.796875 L 69.265625 170.082031 Z M 67.007812 142.761719 " clip-rule="nonzero"/></clipPath><clipPath id="33c8cae4e3"><path d="M 67.007812 142.761719 L 108.398438 139.34375 L 111.546875 177.421875 L 70.15625 180.84375 Z M 67.007812 142.761719 " clip-rule="nonzero"/></clipPath><clipPath id="7d65fe2d7e"><path d="M 89 153 L 106 153 L 106 165 L 89 165 Z M 89 153 " clip-rule="nonzero"/></clipPath><clipPath id="d37decfc10"><path d="M 67.007812 142.761719 L 106.746094 139.480469 L 109 166.796875 L 69.265625 170.082031 Z M 67.007812 142.761719 " clip-rule="nonzero"/></clipPath><clipPath id="c6cb5926a2"><path d="M 67.007812 142.761719 L 108.398438 139.34375 L 111.546875 177.421875 L 70.15625 180.84375 Z M 67.007812 142.761719 " clip-rule="nonzero"/></clipPath><clipPath id="cb9c6f6aae"><path d="M 89 152 L 106 152 L 106 165 L 89 165 Z M 89 152 " clip-rule="nonzero"/></clipPath><clipPath id="f5b8ff7d14"><path d="M 67.007812 142.761719 L 106.746094 139.480469 L 109 166.796875 L 69.265625 170.082031 Z M 67.007812 142.761719 " clip-rule="nonzero"/></clipPath><clipPath id="59a229386d"><path d="M 67.007812 142.761719 L 108.398438 139.34375 L 111.546875 177.421875 L 70.15625 180.84375 Z M 67.007812 142.761719 " clip-rule="nonzero"/></clipPath></defs><g clip-path="url(#d891dc567e)"><path fill="#ff7f50" d="M 88.164062 122.449219 C 72.371094 122.460938 57.226562 128.769531 46.101562 139.980469 L 81.523438 143.082031 L 41.019531 145.835938 C 37.003906 151.121094 33.902344 157.039062 31.847656 163.347656 L 50.082031 164.945312 L 30.917969 166.25 C 29.539062 171.3125 28.835938 176.53125 28.835938 181.777344 C 28.855469 184.589844 29.074219 187.398438 29.492188 190.175781 C 49.914062 176.089844 75.097656 167.761719 102.355469 167.765625 C 118.140625 167.761719 133.230469 170.5625 147.109375 175.648438 C 146.441406 169.382812 144.78125 163.261719 142.191406 157.519531 L 119.167969 155.953125 L 140.519531 154.082031 C 137.191406 147.808594 132.761719 142.183594 127.445312 137.472656 L 83.882812 135.492188 L 122.144531 133.28125 C 112.195312 126.269531 100.332031 122.488281 88.164062 122.449219 Z M 88.164062 122.449219 " fill-opacity="1" fill-rule="nonzero"/></g><path fill="#006811" d="M 109.949219 171.3125 C 79.320312 171.3125 51.886719 184.199219 33.421875 204.523438 C 35.628906 209.84375 38.597656 214.816406 42.234375 219.28125 C 59.152344 192.988281 89.820312 175.417969 124.839844 175.417969 C 132.191406 175.417969 139.347656 176.195312 146.226562 177.660156 C 134.96875 173.5625 122.738281 171.3125 109.949219 171.3125 Z M 109.949219 171.3125 " fill-opacity="1" fill-rule="nonzero"/><g clip-path="url(#3aff57927d)"><path fill="#00943c" d="M 130.777344 178.195312 C 95.117188 178.195312 65.003906 200.527344 55.324219 231.152344 C 60.492188 234.582031 66.167969 237.179688 72.144531 238.847656 C 77.019531 205.519531 107.371094 179.847656 144.101562 179.847656 C 145.214844 179.847656 146.324219 179.871094 147.425781 179.917969 L 147.425781 179.863281 C 142.058594 178.777344 136.488281 178.195312 130.78125 178.195312 " fill-opacity="1" fill-rule="nonzero"/></g><g clip-path="url(#ad8d8ce2fe)"><path fill="#63b32e" d="M 147.484375 181.945312 C 115.261719 182.492188 89.320312 207.261719 89.320312 237.738281 C 89.320312 238.859375 89.359375 239.964844 89.429688 241.066406 C 96.613281 240.910156 103.707031 239.449219 110.367188 236.761719 C 109.882812 234.125 109.625 231.414062 109.625 228.648438 C 109.625 206.644531 125.726562 188.191406 147.425781 183.136719 C 147.449219 182.742188 147.46875 182.34375 147.484375 181.945312 Z M 147.484375 181.945312 " fill-opacity="1" fill-rule="nonzero"/></g><g clip-path="url(#ebe199803b)"><path fill="#63b32e" d="M 147.285156 185.976562 C 132.386719 191.636719 121.875 205.375 121.875 221.433594 C 121.875 224.3125 122.21875 227.117188 122.859375 229.8125 C 137.085938 219.53125 146.03125 203.480469 147.285156 185.976562 Z M 147.285156 185.976562 " fill-opacity="1" fill-rule="nonzero"/></g><g clip-path="url(#32631fb31b)"><g clip-path="url(#e7b0a25d54)"><g clip-path="url(#eb16c69f1c)"><path fill="#fbf88b" d="M 95 151.277344 C 95.28125 154.671875 92.753906 157.652344 89.359375 157.933594 C 85.964844 158.214844 82.984375 155.6875 82.703125 152.292969 C 82.421875 148.898438 84.949219 145.917969 88.34375 145.636719 C 91.738281 145.355469 94.71875 147.882812 95 151.277344 " fill-opacity="1" fill-rule="nonzero"/></g></g></g><g clip-path="url(#3b0693da68)"><g clip-path="url(#90c62adc4f)"><g clip-path="url(#09ecbd015f)"><path fill="#3a1e16" d="M 82.734375 146.28125 C 82.160156 145.742188 81.589844 145.207031 81.015625 144.667969 C 80.78125 144.449219 80.457031 144.832031 80.691406 145.050781 C 81.265625 145.589844 81.835938 146.125 82.410156 146.664062 C 82.644531 146.886719 82.96875 146.5 82.734375 146.28125 Z M 80.296875 152.238281 C 79.515625 152.304688 78.734375 152.367188 77.949219 152.433594 C 77.628906 152.460938 77.667969 152.960938 77.992188 152.933594 C 78.773438 152.871094 79.558594 152.804688 80.339844 152.742188 C 80.660156 152.714844 80.621094 152.214844 80.296875 152.238281 Z M 91.800781 144.21875 C 92.027344 143.464844 92.257812 142.714844 92.484375 141.964844 C 92.578125 141.652344 92.082031 141.5625 91.992188 141.871094 C 91.761719 142.621094 91.535156 143.371094 91.304688 144.125 C 91.210938 144.433594 91.707031 144.523438 91.800781 144.21875 Z M 85.390625 144.613281 C 85.042969 143.910156 84.695312 143.207031 84.34375 142.5 C 84.203125 142.214844 83.730469 142.382812 83.875 142.675781 C 84.222656 143.378906 84.570312 144.082031 84.917969 144.785156 C 85.058594 145.070312 85.535156 144.902344 85.390625 144.613281 Z M 80.761719 149.144531 C 80.007812 148.921875 79.253906 148.703125 78.5 148.484375 C 78.1875 148.390625 78.097656 148.886719 78.40625 148.976562 C 79.160156 149.195312 79.914062 149.417969 80.667969 149.636719 C 80.976562 149.726562 81.066406 149.230469 80.761719 149.144531 Z M 96.417969 148.308594 C 97.125 147.96875 97.832031 147.628906 98.539062 147.285156 C 98.828125 147.148438 98.65625 146.675781 98.363281 146.816406 C 97.65625 147.15625 96.949219 147.496094 96.242188 147.835938 C 95.957031 147.976562 96.125 148.449219 96.417969 148.308594 Z M 94.269531 145.683594 C 94.746094 145.058594 95.222656 144.4375 95.699219 143.8125 C 95.898438 143.554688 95.515625 143.230469 95.316406 143.488281 C 94.839844 144.109375 94.363281 144.734375 93.886719 145.359375 C 93.691406 145.613281 94.074219 145.941406 94.269531 145.683594 Z M 97.308594 151.339844 C 98.09375 151.273438 98.875 151.207031 99.65625 151.144531 C 99.980469 151.117188 99.9375 150.617188 99.617188 150.644531 C 98.832031 150.707031 98.050781 150.773438 97.269531 150.835938 C 96.945312 150.863281 96.988281 151.363281 97.308594 151.339844 Z M 87.738281 141.378906 C 87.804688 142.160156 87.867188 142.941406 87.933594 143.726562 C 87.960938 144.046875 88.460938 144.007812 88.433594 143.683594 C 88.371094 142.902344 88.304688 142.117188 88.238281 141.335938 C 88.214844 141.015625 87.710938 141.054688 87.738281 141.378906 Z M 95.25 151.257812 C 95.472656 154.28125 93.53125 157.15625 90.578125 157.96875 C 88.015625 158.671875 85.226562 157.710938 83.65625 155.558594 C 82.058594 153.367188 82.046875 150.332031 83.589844 148.109375 C 85.109375 145.914062 87.953125 144.878906 90.53125 145.585938 C 93.128906 146.300781 95.003906 148.582031 95.25 151.257812 C 95.277344 151.578125 94.777344 151.621094 94.75 151.296875 C 94.492188 148.527344 92.335938 146.246094 89.558594 145.90625 C 87.085938 145.605469 84.632812 146.949219 83.539062 149.179688 C 82.445312 151.402344 82.886719 154.164062 84.625 155.929688 C 86.375 157.699219 89.09375 158.195312 91.351562 157.152344 C 93.59375 156.117188 94.925781 153.738281 94.75 151.296875 C 94.726562 150.976562 95.226562 150.933594 95.25 151.257812 " fill-opacity="1" fill-rule="nonzero"/></g></g></g><g clip-path="url(#d8d27f0c4b)"><g clip-path="url(#82df9aa4fe)"><g clip-path="url(#46ee7aeb8c)"><path fill="#80cc2a" d="M 107.421875 169.070312 C 107.421875 169.070312 109.007812 166.648438 110.019531 167.398438 C 111.035156 168.144531 109.203125 169.753906 109.203125 169.753906 C 110.671875 169.871094 110.726562 170.550781 110.726562 170.550781 C 111.316406 173.3125 103.789062 174.101562 103.789062 174.101562 C 103.101562 175.136719 101.433594 175.097656 101.433594 175.097656 C 100.472656 175.710938 99.023438 175.476562 99.023438 175.476562 C 90.472656 178.890625 80.574219 176.492188 80.574219 176.492188 C 75.484375 177.894531 72.734375 176.339844 72.734375 176.339844 C 72.734375 176.339844 71.628906 176.964844 71.003906 176.273438 C 70.382812 175.582031 71.996094 174.5625 71.996094 174.5625 C 71.125 174.691406 69.625 173.976562 70.171875 173.367188 C 70.714844 172.757812 71.882812 173.226562 71.882812 173.226562 C 70.320312 172.3125 70.542969 171.402344 70.542969 171.402344 C 71.394531 170.527344 73.402344 172.175781 73.402344 172.175781 C 77.0625 170.386719 87.648438 169.574219 87.648438 169.574219 C 100.796875 167.632812 107.421875 169.070312 107.421875 169.070312 " fill-opacity="1" fill-rule="nonzero"/></g></g></g><g clip-path="url(#89c37802f6)"><g clip-path="url(#9f226e6526)"><g clip-path="url(#2138f0d5e3)"><g clip-path="url(#29177a9225)"><path fill="#3a1e16" d="M 110.296875 171.507812 C 109.875 172.089844 109.191406 172.425781 108.546875 172.695312 C 107.027344 173.324219 105.417969 173.699219 103.777344 173.832031 C 103.6875 173.792969 103.582031 173.808594 103.507812 173.910156 C 103.265625 174.238281 102.960938 174.496094 102.585938 174.652344 C 102.179688 174.824219 101.835938 174.792969 101.414062 174.796875 C 101.066406 174.800781 100.832031 175.078125 100.507812 175.175781 C 100.125 175.296875 99.699219 175.277344 99.300781 175.261719 C 99.242188 175.226562 99.167969 175.210938 99.085938 175.238281 C 93.175781 177.210938 86.765625 177.457031 80.660156 176.3125 C 80.605469 176.304688 80.558594 176.308594 80.519531 176.324219 C 79.25 176.660156 77.945312 176.835938 76.632812 176.84375 C 75.976562 176.847656 75.320312 176.808594 74.667969 176.726562 C 74.054688 176.648438 73.394531 176.582031 72.902344 176.175781 C 72.902344 176.175781 72.902344 176.175781 72.898438 176.171875 C 72.839844 176.113281 72.75 176.085938 72.644531 176.128906 C 72.296875 176.277344 70.921875 176.570312 71.148438 175.761719 C 71.230469 175.464844 71.566406 175.308594 71.820312 175.1875 C 72.117188 175.042969 72.417969 174.910156 72.714844 174.769531 C 72.722656 174.769531 72.726562 174.765625 72.730469 174.761719 C 72.910156 174.679688 72.917969 174.425781 72.785156 174.316406 C 72.734375 174.261719 72.65625 174.238281 72.570312 174.269531 C 71.984375 174.328125 71.203125 174.234375 70.683594 173.949219 C 70.148438 173.660156 70.664062 173.316406 71.046875 173.296875 C 71.355469 173.28125 71.671875 173.390625 71.964844 173.480469 C 72.210938 173.558594 72.386719 173.171875 72.179688 173.027344 C 71.878906 172.808594 71.585938 172.574219 71.308594 172.320312 C 71.117188 172.144531 70.441406 171.40625 71.152344 171.425781 C 71.832031 171.445312 72.570312 172.023438 73.101562 172.386719 C 73.113281 172.394531 73.125 172.398438 73.136719 172.40625 C 73.195312 172.449219 73.273438 172.464844 73.359375 172.433594 C 77.582031 170.96875 82.011719 170.320312 86.4375 169.867188 C 90.949219 169.402344 95.480469 168.972656 100.011719 168.820312 C 102.390625 168.738281 104.960938 168.550781 107.253906 169.308594 C 107.285156 169.316406 107.3125 169.320312 107.339844 169.320312 C 107.4375 169.335938 107.542969 169.296875 107.601562 169.1875 C 107.996094 168.445312 108.664062 167.851562 109.476562 167.613281 C 109.726562 167.539062 110.046875 167.492188 110.136719 167.789062 C 110.21875 168.046875 110.019531 168.316406 109.886719 168.523438 C 109.632812 168.921875 109.34375 169.296875 108.976562 169.597656 C 108.820312 169.675781 108.8125 169.910156 108.933594 170.023438 C 108.996094 170.085938 109.082031 170.117188 109.167969 170.089844 C 109.566406 170.074219 110.011719 170.101562 110.316406 170.390625 C 110.671875 170.730469 110.554688 171.152344 110.296875 171.507812 Z M 111.046875 170.648438 C 110.902344 169.992188 110.332031 169.699219 109.730469 169.605469 C 110.078125 169.238281 110.382812 168.808594 110.574219 168.367188 C 110.78125 167.878906 110.695312 167.242188 110.125 167.066406 C 109.574219 166.894531 108.910156 167.226562 108.457031 167.511719 C 107.953125 167.828125 107.546875 168.261719 107.242188 168.765625 C 105.339844 168.1875 103.316406 168.226562 101.34375 168.261719 C 98.964844 168.304688 96.589844 168.453125 94.21875 168.640625 C 89.65625 169 85.0625 169.347656 80.546875 170.109375 C 78.09375 170.523438 75.664062 171.089844 73.308594 171.898438 C 72.855469 171.585938 72.386719 171.277344 71.871094 171.085938 C 71.460938 170.933594 70.898438 170.738281 70.542969 171.089844 C 69.988281 171.628906 70.460938 172.277344 71.011719 172.777344 C 70.863281 172.78125 70.710938 172.808594 70.5625 172.863281 C 70.195312 172.996094 69.847656 173.332031 69.910156 173.753906 C 69.984375 174.234375 70.429688 174.433594 70.84375 174.558594 C 71.070312 174.628906 71.296875 174.6875 71.53125 174.730469 C 70.976562 175.023438 70.488281 175.425781 70.613281 176.058594 C 70.800781 176.988281 71.980469 176.921875 72.691406 176.671875 C 73.148438 176.996094 73.691406 177.113281 74.246094 177.195312 C 74.941406 177.296875 75.644531 177.351562 76.351562 177.363281 C 77.792969 177.382812 79.222656 177.199219 80.617188 176.835938 C 86.765625 177.980469 93.214844 177.730469 99.167969 175.761719 C 99.191406 175.769531 99.21875 175.777344 99.246094 175.777344 C 99.683594 175.796875 100.128906 175.808594 100.558594 175.703125 C 100.757812 175.652344 100.9375 175.574219 101.117188 175.476562 C 101.386719 175.335938 101.542969 175.347656 101.832031 175.34375 C 102.605469 175.328125 103.339844 174.945312 103.824219 174.351562 C 104.917969 174.261719 105.996094 174.070312 107.050781 173.769531 C 108.011719 173.492188 109.023438 173.15625 109.867188 172.601562 C 110.480469 172.199219 111.226562 171.460938 111.046875 170.648438 " fill-opacity="1" fill-rule="nonzero"/></g></g></g></g><g clip-path="url(#fde276ac8b)"><g clip-path="url(#ad438ec762)"><g clip-path="url(#7a58cc4ef7)"><path fill="#56bdff" d="M 97.761719 172.011719 L 83.4375 173.195312 L 83.550781 174.554688 L 97.875 173.371094 Z M 97.761719 172.011719 L 83.4375 173.195312 L 85.242188 168.578125 L 89.105469 168.261719 L 88.828125 164.878906 L 91.046875 164.695312 L 91.328125 168.078125 L 95.5 167.730469 L 97.761719 172.011719 " fill-opacity="1" fill-rule="nonzero"/></g></g></g><g clip-path="url(#c55297a66d)"><g clip-path="url(#17ec6dc5a6)"><g clip-path="url(#8a62ef5347)"><path fill="#3a1e16" d="M 93.027344 173.519531 C 90.457031 173.734375 87.890625 173.945312 85.320312 174.15625 C 84.804688 174.199219 84.292969 174.242188 83.78125 174.285156 C 83.757812 173.996094 83.734375 173.710938 83.710938 173.421875 C 85.234375 173.296875 86.761719 173.171875 88.285156 173.046875 C 90.855469 172.832031 93.425781 172.621094 95.996094 172.410156 C 96.507812 172.367188 97.019531 172.324219 97.535156 172.28125 C 97.558594 172.566406 97.582031 172.855469 97.605469 173.140625 C 96.078125 173.269531 94.554688 173.394531 93.027344 173.519531 Z M 85.417969 168.816406 C 86.65625 168.714844 87.890625 168.613281 89.128906 168.511719 C 89.261719 168.5 89.367188 168.375 89.355469 168.238281 C 89.269531 167.195312 89.183594 166.152344 89.097656 165.109375 C 89.671875 165.0625 90.246094 165.015625 90.816406 164.96875 C 90.902344 166.011719 90.992188 167.054688 91.078125 168.097656 C 91.085938 168.234375 91.210938 168.339844 91.347656 168.328125 C 92.683594 168.21875 94.019531 168.105469 95.355469 167.996094 C 96.027344 169.261719 96.695312 170.527344 97.367188 171.792969 C 95.882812 171.914062 94.398438 172.035156 92.914062 172.160156 C 90.347656 172.371094 87.777344 172.582031 85.207031 172.796875 C 84.742188 172.835938 84.28125 172.871094 83.820312 172.910156 C 84.351562 171.546875 84.886719 170.183594 85.417969 168.816406 Z M 98.011719 171.988281 C 98.011719 171.949219 97.996094 171.914062 97.976562 171.878906 C 97.972656 171.875 97.972656 171.871094 97.96875 171.867188 C 97.214844 170.441406 96.472656 169.042969 95.71875 167.617188 C 95.660156 167.503906 95.566406 167.484375 95.457031 167.484375 C 94.15625 167.589844 92.855469 167.699219 91.554688 167.804688 C 91.46875 166.761719 91.382812 165.71875 91.296875 164.675781 C 91.285156 164.542969 91.164062 164.433594 91.027344 164.445312 C 90.285156 164.507812 89.546875 164.570312 88.808594 164.628906 C 88.671875 164.640625 88.566406 164.765625 88.578125 164.902344 C 88.664062 165.945312 88.75 166.988281 88.835938 168.03125 C 87.632812 168.128906 86.425781 168.230469 85.222656 168.328125 C 85.140625 168.335938 85.046875 168.390625 85.015625 168.472656 C 84.414062 170.007812 83.8125 171.546875 83.210938 173.085938 C 83.210938 173.09375 83.207031 173.097656 83.207031 173.105469 C 83.191406 173.140625 83.183594 173.175781 83.1875 173.214844 C 83.226562 173.667969 83.265625 174.121094 83.300781 174.574219 C 83.3125 174.710938 83.4375 174.816406 83.570312 174.804688 C 85.179688 174.671875 86.789062 174.539062 88.398438 174.40625 C 90.96875 174.195312 93.539062 173.980469 96.109375 173.769531 C 96.703125 173.71875 97.300781 173.671875 97.894531 173.621094 C 97.96875 173.617188 98.023438 173.585938 98.058594 173.542969 C 98.0625 173.539062 98.066406 173.535156 98.066406 173.53125 C 98.070312 173.53125 98.070312 173.527344 98.070312 173.527344 C 98.109375 173.484375 98.132812 173.425781 98.125 173.351562 C 98.089844 172.898438 98.050781 172.445312 98.011719 171.988281 " fill-opacity="1" fill-rule="nonzero"/></g></g></g><g clip-path="url(#3c2ebbcfc4)"><g clip-path="url(#ec4903bdbe)"><g clip-path="url(#39b566d310)"><path fill="#f5f6f5" d="M 74.316406 154.515625 L 103.636719 152.09375 L 107.410156 164.367188 L 72.65625 167.238281 L 74.316406 154.515625 " fill-opacity="1" fill-rule="nonzero"/></g></g></g><g clip-path="url(#637a2ad91f)"><g clip-path="url(#d64f7bc0fb)"><g clip-path="url(#6538ac9298)"><path fill="#3a1e16" d="M 74.296875 154.265625 C 74.3125 154.265625 74.332031 154.265625 74.347656 154.261719 C 74.722656 154.199219 75.121094 154.199219 75.5 154.167969 C 76.308594 154.101562 77.113281 154.035156 77.917969 153.96875 C 80.359375 153.765625 82.800781 153.5625 85.242188 153.363281 C 88.066406 153.128906 90.886719 152.894531 93.710938 152.664062 C 96.042969 152.46875 98.371094 152.277344 100.703125 152.085938 C 101.675781 152.003906 102.644531 151.925781 103.617188 151.84375 C 103.722656 151.835938 103.839844 151.902344 103.875 152.007812 C 104.03125 152.519531 104.1875 153.027344 104.34375 153.539062 C 105.445312 157.121094 106.546875 160.699219 107.644531 164.28125 C 107.695312 164.433594 107.601562 164.605469 107.429688 164.617188 C 107.410156 164.621094 107.390625 164.621094 107.371094 164.621094 C 106.929688 164.695312 106.460938 164.699219 106.015625 164.734375 C 105.0625 164.8125 104.105469 164.890625 103.152344 164.972656 C 100.261719 165.210938 97.367188 165.449219 94.472656 165.6875 C 91.125 165.964844 87.78125 166.242188 84.433594 166.519531 C 81.667969 166.746094 78.898438 166.976562 76.132812 167.203125 C 74.980469 167.296875 73.832031 167.394531 72.679688 167.488281 C 72.507812 167.503906 72.390625 167.351562 72.410156 167.191406 C 72.480469 166.660156 72.550781 166.125 72.621094 165.59375 C 73.101562 161.886719 73.585938 158.179688 74.070312 154.46875 C 74.109375 154.148438 74.605469 154.242188 74.5625 154.5625 C 74.492188 155.097656 74.421875 155.628906 74.355469 156.164062 C 73.871094 159.871094 73.386719 163.578125 72.90625 167.285156 C 72.816406 167.1875 72.726562 167.085938 72.636719 166.988281 C 72.65625 166.988281 72.679688 166.988281 72.695312 166.984375 C 72.828125 166.9375 73.027344 166.957031 73.164062 166.945312 C 73.460938 166.921875 73.757812 166.894531 74.054688 166.871094 C 75.007812 166.792969 75.960938 166.714844 76.914062 166.636719 C 79.808594 166.394531 82.703125 166.15625 85.59375 165.917969 C 88.941406 165.640625 92.289062 165.363281 95.636719 165.089844 C 98.402344 164.859375 101.167969 164.632812 103.933594 164.402344 C 105.085938 164.308594 106.238281 164.210938 107.390625 164.117188 C 107.316406 164.230469 107.246094 164.339844 107.175781 164.453125 C 107.019531 163.945312 106.859375 163.433594 106.703125 162.921875 C 105.601562 159.34375 104.503906 155.761719 103.402344 152.179688 C 103.488281 152.234375 103.574219 152.289062 103.660156 152.34375 C 103.640625 152.347656 103.621094 152.34375 103.605469 152.347656 C 103.5 152.390625 103.328125 152.371094 103.214844 152.382812 C 102.960938 152.402344 102.707031 152.421875 102.453125 152.445312 C 101.644531 152.511719 100.839844 152.578125 100.035156 152.644531 C 97.59375 152.847656 95.152344 153.046875 92.710938 153.25 C 89.886719 153.484375 87.066406 153.714844 84.242188 153.949219 C 81.910156 154.140625 79.582031 154.335938 77.25 154.527344 C 76.277344 154.605469 75.308594 154.6875 74.335938 154.765625 C 74.015625 154.792969 73.972656 154.292969 74.296875 154.265625 " fill-opacity="1" fill-rule="nonzero"/></g></g></g><g clip-path="url(#9d7a304ae9)"><g clip-path="url(#921bb6105f)"><g clip-path="url(#aba45deb29)"><path fill="#56bdff" d="M 84.644531 162.050781 L 84.710938 165.09375 L 88.839844 164.753906 L 88.6875 161.71875 Z M 74.480469 162.890625 L 74.09375 165.972656 L 77.882812 165.660156 L 78.109375 162.589844 Z M 79.601562 162.46875 L 79.433594 165.53125 L 83.0625 165.230469 L 83.078125 162.179688 Z M 84.480469 154.65625 L 84.527344 156.742188 L 88.414062 156.421875 L 88.308594 154.339844 Z M 80.007812 155.027344 L 79.890625 157.125 L 83.109375 156.859375 L 83.117188 154.769531 Z M 75.421875 155.40625 L 75.15625 157.515625 L 78.503906 157.242188 L 78.660156 155.136719 Z M 75.011719 158.65625 L 74.660156 161.464844 L 78.210938 161.171875 L 78.417969 158.375 Z M 79.832031 158.257812 L 79.679688 161.050781 L 83.085938 160.769531 L 83.101562 157.984375 Z M 88.488281 157.542969 L 88.613281 160.3125 L 84.613281 160.644531 L 84.550781 157.867188 L 88.488281 157.542969 " fill-opacity="1" fill-rule="nonzero"/></g></g></g><g clip-path="url(#95eb1e1305)"><g clip-path="url(#c31073ad86)"><g clip-path="url(#33c8cae4e3)"><path fill="#3a1e16" d="M 88.449219 161.988281 C 88.492188 162.832031 88.535156 163.679688 88.578125 164.523438 C 87.371094 164.621094 86.164062 164.722656 84.957031 164.820312 C 84.9375 163.976562 84.917969 163.128906 84.902344 162.28125 C 86.082031 162.183594 87.265625 162.085938 88.449219 161.988281 Z M 88.824219 161.507812 C 88.78125 161.476562 88.730469 161.460938 88.664062 161.46875 C 87.320312 161.578125 85.972656 161.691406 84.625 161.800781 C 84.484375 161.8125 84.390625 161.9375 84.394531 162.070312 C 84.417969 163.085938 84.441406 164.101562 84.460938 165.113281 C 84.464844 165.25 84.605469 165.355469 84.734375 165.34375 C 86.109375 165.230469 87.484375 165.117188 88.863281 165.003906 C 89 164.992188 89.097656 164.867188 89.089844 164.734375 C 89.039062 163.722656 88.988281 162.707031 88.9375 161.695312 C 88.933594 161.601562 88.886719 161.539062 88.824219 161.507812 Z M 77.648438 165.425781 C 76.558594 165.515625 75.46875 165.605469 74.382812 165.695312 C 74.488281 164.839844 74.597656 163.980469 74.703125 163.125 C 75.75 163.039062 76.792969 162.953125 77.835938 162.867188 C 77.773438 163.71875 77.710938 164.574219 77.648438 165.425781 Z M 78.085938 162.339844 C 76.878906 162.441406 75.667969 162.539062 74.460938 162.640625 C 74.355469 162.648438 74.246094 162.734375 74.234375 162.84375 C 74.105469 163.871094 73.976562 164.898438 73.847656 165.925781 C 73.828125 166.085938 73.945312 166.234375 74.113281 166.222656 C 75.378906 166.117188 76.640625 166.011719 77.902344 165.910156 C 78 165.902344 78.121094 165.8125 78.128906 165.707031 C 78.203125 164.683594 78.28125 163.660156 78.355469 162.636719 C 78.355469 162.605469 78.351562 162.578125 78.347656 162.550781 C 78.328125 162.433594 78.238281 162.328125 78.085938 162.339844 Z M 82.828125 162.453125 C 82.824219 163.300781 82.820312 164.152344 82.8125 165 C 81.777344 165.085938 80.738281 165.171875 79.699219 165.257812 C 79.746094 164.40625 79.792969 163.550781 79.839844 162.699219 C 80.835938 162.617188 81.832031 162.535156 82.828125 162.453125 Z M 83.175781 161.945312 C 83.140625 161.933594 83.101562 161.925781 83.058594 161.929688 C 81.898438 162.027344 80.742188 162.121094 79.582031 162.21875 C 79.484375 162.226562 79.363281 162.3125 79.355469 162.421875 C 79.300781 163.441406 79.246094 164.464844 79.1875 165.484375 C 79.179688 165.644531 79.277344 165.796875 79.457031 165.78125 C 80.664062 165.679688 81.875 165.582031 83.082031 165.480469 C 83.226562 165.46875 83.3125 165.347656 83.3125 165.210938 C 83.320312 164.195312 83.324219 163.175781 83.332031 162.160156 C 83.332031 162.039062 83.261719 161.96875 83.175781 161.945312 Z M 88.070312 154.613281 C 88.097656 155.136719 88.125 155.664062 88.152344 156.191406 C 87.027344 156.285156 85.898438 156.378906 84.769531 156.46875 C 84.757812 155.941406 84.746094 155.414062 84.734375 154.886719 C 85.847656 154.796875 86.960938 154.703125 88.070312 154.613281 Z M 88.445312 154.128906 C 88.40625 154.101562 88.351562 154.085938 88.289062 154.089844 C 87.011719 154.195312 85.734375 154.300781 84.457031 154.40625 C 84.316406 154.417969 84.226562 154.542969 84.226562 154.675781 C 84.246094 155.371094 84.261719 156.066406 84.277344 156.761719 C 84.28125 156.898438 84.417969 157.003906 84.546875 156.992188 C 85.84375 156.886719 87.140625 156.777344 88.4375 156.671875 C 88.574219 156.660156 88.671875 156.535156 88.667969 156.402344 C 88.632812 155.707031 88.59375 155.011719 88.558594 154.320312 C 88.554688 154.226562 88.507812 154.164062 88.445312 154.128906 Z M 82.867188 155.042969 C 82.863281 155.570312 82.863281 156.097656 82.859375 156.628906 C 81.957031 156.703125 81.058594 156.777344 80.15625 156.851562 C 80.1875 156.320312 80.214844 155.789062 80.242188 155.257812 C 81.117188 155.1875 81.992188 155.113281 82.867188 155.042969 Z M 83.214844 154.535156 C 83.179688 154.523438 83.140625 154.515625 83.097656 154.519531 C 82.0625 154.605469 81.023438 154.691406 79.984375 154.777344 C 79.886719 154.785156 79.765625 154.871094 79.761719 154.980469 C 79.722656 155.679688 79.683594 156.378906 79.644531 157.078125 C 79.636719 157.238281 79.734375 157.390625 79.914062 157.375 C 80.984375 157.289062 82.058594 157.199219 83.128906 157.109375 C 83.273438 157.097656 83.359375 156.976562 83.359375 156.839844 C 83.363281 156.140625 83.367188 155.445312 83.371094 154.75 C 83.371094 154.628906 83.300781 154.558594 83.214844 154.535156 Z M 75.441406 157.242188 C 75.507812 156.707031 75.578125 156.171875 75.644531 155.640625 C 76.558594 155.5625 77.472656 155.488281 78.390625 155.410156 C 78.351562 155.945312 78.308594 156.476562 78.269531 157.007812 C 77.328125 157.085938 76.386719 157.164062 75.441406 157.242188 Z M 75.175781 157.765625 C 76.292969 157.675781 77.40625 157.582031 78.523438 157.492188 C 78.625 157.480469 78.742188 157.394531 78.75 157.289062 C 78.800781 156.585938 78.855469 155.886719 78.90625 155.183594 C 78.910156 155.152344 78.90625 155.121094 78.898438 155.09375 C 78.878906 154.980469 78.789062 154.875 78.640625 154.886719 C 77.558594 154.976562 76.480469 155.066406 75.398438 155.15625 C 75.296875 155.164062 75.1875 155.25 75.171875 155.359375 C 75.085938 156.0625 74.996094 156.765625 74.90625 157.46875 C 74.886719 157.628906 75.003906 157.78125 75.175781 157.765625 Z M 75.234375 158.886719 C 76.207031 158.808594 77.179688 158.726562 78.148438 158.648438 C 78.09375 159.410156 78.035156 160.175781 77.980469 160.9375 C 76.96875 161.023438 75.957031 161.105469 74.949219 161.191406 C 75.042969 160.421875 75.140625 159.65625 75.234375 158.886719 Z M 78.65625 158.332031 C 78.640625 158.214844 78.550781 158.109375 78.398438 158.121094 C 77.261719 158.21875 76.128906 158.3125 74.992188 158.40625 C 74.886719 158.414062 74.777344 158.5 74.765625 158.609375 C 74.648438 159.546875 74.53125 160.480469 74.414062 161.417969 C 74.394531 161.578125 74.511719 161.730469 74.679688 161.714844 C 75.863281 161.617188 77.050781 161.519531 78.234375 161.421875 C 78.332031 161.414062 78.453125 161.328125 78.460938 161.21875 C 78.527344 160.285156 78.597656 159.351562 78.667969 158.417969 C 78.667969 158.386719 78.664062 158.359375 78.65625 158.332031 Z M 82.851562 158.257812 C 82.847656 159.019531 82.84375 159.777344 82.839844 160.539062 C 81.875 160.617188 80.910156 160.695312 79.945312 160.777344 C 79.984375 160.015625 80.027344 159.25 80.066406 158.488281 C 80.996094 158.414062 81.921875 158.335938 82.851562 158.257812 Z M 83.195312 157.753906 C 83.164062 157.738281 83.125 157.734375 83.082031 157.734375 C 81.992188 157.824219 80.902344 157.917969 79.8125 158.007812 C 79.714844 158.015625 79.589844 158.101562 79.585938 158.210938 C 79.535156 159.140625 79.484375 160.074219 79.433594 161.003906 C 79.425781 161.164062 79.519531 161.316406 79.699219 161.300781 C 80.835938 161.207031 81.972656 161.113281 83.109375 161.019531 C 83.253906 161.007812 83.335938 160.882812 83.339844 160.75 C 83.34375 159.820312 83.347656 158.894531 83.351562 157.964844 C 83.351562 157.84375 83.285156 157.777344 83.195312 157.753906 Z M 88.25 157.8125 C 88.285156 158.570312 88.316406 159.324219 88.351562 160.082031 C 87.1875 160.179688 86.023438 160.273438 84.859375 160.371094 C 84.839844 159.613281 84.824219 158.855469 84.808594 158.097656 C 85.953125 158.003906 87.101562 157.90625 88.25 157.8125 Z M 88.621094 157.328125 C 88.621094 157.324219 88.617188 157.324219 88.613281 157.324219 C 88.613281 157.324219 88.613281 157.320312 88.613281 157.320312 C 88.574219 157.296875 88.523438 157.285156 88.46875 157.289062 C 87.15625 157.398438 85.84375 157.507812 84.53125 157.617188 C 84.390625 157.628906 84.296875 157.75 84.300781 157.886719 C 84.320312 158.8125 84.34375 159.738281 84.363281 160.664062 C 84.367188 160.800781 84.503906 160.902344 84.632812 160.894531 C 85.96875 160.78125 87.300781 160.671875 88.636719 160.5625 C 88.773438 160.550781 88.871094 160.425781 88.863281 160.292969 C 88.824219 159.367188 88.78125 158.445312 88.738281 157.519531 C 88.734375 157.425781 88.6875 157.359375 88.621094 157.328125 " fill-opacity="1" fill-rule="nonzero"/></g></g></g><g clip-path="url(#7d65fe2d7e)"><g clip-path="url(#d37decfc10)"><g clip-path="url(#c6cb5926a2)"><path fill="#56bdff" d="M 104.765625 160.386719 L 100.964844 160.703125 L 101.691406 163.691406 L 105.65625 163.363281 Z M 99.46875 160.828125 L 96.019531 161.113281 L 96.457031 164.125 L 100.136719 163.820312 Z M 94.429688 161.242188 L 90.5625 161.5625 L 90.90625 164.582031 L 94.863281 164.253906 Z M 102.613281 153.160156 L 99.195312 153.441406 L 99.695312 155.488281 L 103.21875 155.199219 Z M 97.851562 153.550781 L 94.738281 153.808594 L 95.089844 155.871094 L 98.308594 155.605469 Z M 93.378906 153.921875 L 89.722656 154.222656 L 89.960938 156.292969 L 93.675781 155.988281 Z M 103.546875 156.296875 L 99.964844 156.59375 L 100.625 159.320312 L 104.355469 159.011719 Z M 98.550781 156.710938 L 95.304688 156.980469 L 95.753906 159.722656 L 99.160156 159.441406 Z M 94.179688 159.851562 L 90.402344 160.164062 L 90.085938 157.410156 L 93.765625 157.105469 L 94.179688 159.851562 " fill-opacity="1" fill-rule="nonzero"/></g></g></g><g clip-path="url(#cb9c6f6aae)"><g clip-path="url(#f5b8ff7d14)"><g clip-path="url(#59a229386d)"><path fill="#3a1e16" d="M 101.277344 160.929688 C 102.378906 160.839844 103.480469 160.746094 104.585938 160.65625 C 104.832031 161.484375 105.078125 162.3125 105.328125 163.140625 C 104.179688 163.234375 103.03125 163.328125 101.882812 163.421875 C 101.679688 162.59375 101.476562 161.761719 101.277344 160.929688 Z M 105.890625 163.277344 C 105.59375 162.285156 105.300781 161.292969 105.003906 160.300781 C 104.972656 160.199219 104.851562 160.128906 104.746094 160.136719 C 103.480469 160.242188 102.210938 160.347656 100.941406 160.453125 C 100.765625 160.46875 100.691406 160.632812 100.726562 160.789062 C 100.96875 161.785156 101.210938 162.78125 101.457031 163.777344 C 101.480469 163.882812 101.609375 163.949219 101.710938 163.941406 C 103.03125 163.832031 104.355469 163.722656 105.675781 163.613281 C 105.796875 163.605469 105.867188 163.527344 105.890625 163.433594 C 105.90625 163.386719 105.90625 163.335938 105.890625 163.277344 Z M 99.832031 163.59375 C 98.777344 163.679688 97.722656 163.765625 96.671875 163.855469 C 96.546875 163.015625 96.425781 162.179688 96.304688 161.339844 C 97.292969 161.257812 98.285156 161.175781 99.273438 161.09375 C 99.460938 161.925781 99.644531 162.761719 99.832031 163.59375 Z M 100.371094 163.734375 C 100.148438 162.734375 99.929688 161.738281 99.707031 160.738281 C 99.683594 160.632812 99.546875 160.566406 99.449219 160.574219 C 98.296875 160.671875 97.148438 160.765625 95.996094 160.859375 C 95.867188 160.871094 95.75 160.996094 95.769531 161.132812 C 95.914062 162.136719 96.058594 163.140625 96.207031 164.144531 C 96.226562 164.28125 96.335938 164.386719 96.476562 164.375 C 97.703125 164.273438 98.929688 164.171875 100.15625 164.070312 C 100.316406 164.058594 100.386719 163.925781 100.378906 163.800781 C 100.378906 163.78125 100.378906 163.757812 100.371094 163.734375 Z M 94.578125 164.027344 C 93.425781 164.121094 92.277344 164.21875 91.128906 164.3125 C 91.035156 163.472656 90.9375 162.632812 90.839844 161.792969 C 91.964844 161.699219 93.089844 161.605469 94.214844 161.511719 C 94.335938 162.351562 94.457031 163.1875 94.578125 164.027344 Z M 94.410156 160.992188 C 93.121094 161.097656 91.832031 161.207031 90.542969 161.3125 C 90.410156 161.324219 90.296875 161.449219 90.3125 161.582031 C 90.425781 162.589844 90.542969 163.597656 90.65625 164.601562 C 90.671875 164.738281 90.789062 164.84375 90.929688 164.832031 C 92.246094 164.722656 93.566406 164.613281 94.882812 164.507812 C 94.933594 164.5 94.972656 164.484375 95.007812 164.460938 C 95.078125 164.421875 95.128906 164.34375 95.113281 164.234375 C 94.96875 163.230469 94.824219 162.226562 94.679688 161.222656 C 94.660156 161.089844 94.550781 160.980469 94.410156 160.992188 Z M 102.890625 154.972656 C 101.890625 155.054688 100.886719 155.140625 99.886719 155.222656 C 99.757812 154.703125 99.632812 154.183594 99.507812 153.667969 C 100.480469 153.585938 101.457031 153.507812 102.429688 153.425781 C 102.585938 153.941406 102.738281 154.457031 102.890625 154.972656 Z M 99.457031 155.574219 C 99.484375 155.679688 99.613281 155.746094 99.714844 155.738281 C 100.890625 155.640625 102.066406 155.546875 103.242188 155.449219 C 103.363281 155.4375 103.433594 155.359375 103.457031 155.265625 C 103.472656 155.222656 103.472656 155.167969 103.457031 155.113281 C 103.253906 154.433594 103.050781 153.75 102.847656 153.070312 C 102.816406 152.96875 102.695312 152.898438 102.59375 152.910156 C 101.453125 153.003906 100.3125 153.097656 99.175781 153.191406 C 98.996094 153.207031 98.921875 153.371094 98.960938 153.527344 C 99.125 154.210938 99.292969 154.894531 99.457031 155.574219 Z M 98 155.378906 C 97.101562 155.453125 96.199219 155.527344 95.300781 155.601562 C 95.210938 155.078125 95.121094 154.558594 95.03125 154.035156 C 95.90625 153.964844 96.78125 153.890625 97.652344 153.820312 C 97.769531 154.339844 97.886719 154.859375 98 155.378906 Z M 98.328125 155.855469 C 98.488281 155.839844 98.558594 155.710938 98.550781 155.585938 C 98.550781 155.566406 98.546875 155.542969 98.542969 155.515625 C 98.390625 154.832031 98.238281 154.148438 98.085938 153.464844 C 98.0625 153.359375 97.929688 153.292969 97.828125 153.300781 C 96.792969 153.386719 95.753906 153.472656 94.714844 153.558594 C 94.589844 153.570312 94.464844 153.695312 94.488281 153.828125 C 94.605469 154.515625 94.722656 155.203125 94.839844 155.890625 C 94.863281 156.023438 94.96875 156.132812 95.113281 156.121094 C 96.183594 156.03125 97.253906 155.941406 98.328125 155.855469 Z M 90 154.453125 C 91.054688 154.367188 92.109375 154.277344 93.164062 154.191406 C 93.238281 154.714844 93.3125 155.234375 93.386719 155.757812 C 92.320312 155.847656 91.25 155.933594 90.179688 156.023438 C 90.121094 155.5 90.0625 154.976562 90 154.453125 Z M 89.980469 156.542969 C 91.21875 156.441406 92.457031 156.339844 93.695312 156.238281 C 93.746094 156.234375 93.785156 156.214844 93.820312 156.191406 C 93.890625 156.152344 93.941406 156.074219 93.925781 155.964844 C 93.828125 155.277344 93.726562 154.589844 93.628906 153.902344 C 93.609375 153.765625 93.5 153.660156 93.359375 153.671875 C 92.140625 153.773438 90.921875 153.871094 89.703125 153.972656 C 89.570312 153.984375 89.457031 154.109375 89.472656 154.246094 C 89.550781 154.933594 89.628906 155.625 89.710938 156.3125 C 89.726562 156.449219 89.839844 156.554688 89.980469 156.542969 Z M 104.027344 158.785156 C 102.957031 158.875 101.886719 158.964844 100.820312 159.050781 C 100.636719 158.308594 100.457031 157.5625 100.273438 156.820312 C 101.304688 156.734375 102.335938 156.652344 103.367188 156.566406 C 103.585938 157.304688 103.808594 158.046875 104.027344 158.785156 Z M 104.378906 159.261719 C 104.5 159.25 104.570312 159.171875 104.59375 159.082031 C 104.609375 159.035156 104.609375 158.980469 104.59375 158.925781 C 104.324219 158.019531 104.054688 157.117188 103.785156 156.210938 C 103.753906 156.105469 103.632812 156.039062 103.527344 156.046875 C 102.332031 156.148438 101.136719 156.246094 99.941406 156.34375 C 99.765625 156.359375 99.691406 156.523438 99.726562 156.679688 C 99.949219 157.589844 100.167969 158.496094 100.390625 159.40625 C 100.417969 159.511719 100.546875 159.578125 100.648438 159.570312 C 101.890625 159.46875 103.132812 159.363281 104.378906 159.261719 Z M 98.855469 159.214844 C 97.890625 159.292969 96.925781 159.375 95.964844 159.453125 C 95.839844 158.703125 95.71875 157.957031 95.59375 157.207031 C 96.515625 157.132812 97.4375 157.054688 98.359375 156.980469 C 98.523438 157.722656 98.691406 158.46875 98.855469 159.214844 Z M 99.183594 159.691406 C 99.34375 159.679688 99.414062 159.546875 99.402344 159.421875 C 99.402344 159.402344 99.402344 159.378906 99.398438 159.355469 C 99.195312 158.445312 98.992188 157.535156 98.789062 156.625 C 98.765625 156.519531 98.632812 156.453125 98.53125 156.460938 C 97.449219 156.550781 96.367188 156.640625 95.28125 156.730469 C 95.15625 156.738281 95.03125 156.867188 95.050781 157 C 95.203125 157.914062 95.351562 158.828125 95.503906 159.742188 C 95.527344 159.875 95.628906 159.984375 95.773438 159.972656 C 96.910156 159.878906 98.046875 159.785156 99.183594 159.691406 Z M 90.367188 157.640625 C 91.429688 157.550781 92.492188 157.464844 93.554688 157.375 C 93.667969 158.125 93.777344 158.875 93.890625 159.625 C 92.800781 159.714844 91.714844 159.804688 90.625 159.894531 C 90.539062 159.144531 90.453125 158.390625 90.367188 157.640625 Z M 90.421875 160.414062 C 91.683594 160.3125 92.941406 160.207031 94.199219 160.101562 C 94.246094 160.097656 94.285156 160.082031 94.320312 160.0625 C 94.394531 160.019531 94.445312 159.945312 94.429688 159.832031 C 94.292969 158.917969 94.15625 158 94.015625 157.085938 C 93.996094 156.953125 93.890625 156.84375 93.746094 156.855469 C 92.519531 156.957031 91.292969 157.058594 90.066406 157.160156 C 89.933594 157.171875 89.820312 157.296875 89.835938 157.429688 C 89.941406 158.347656 90.046875 159.265625 90.152344 160.183594 C 90.167969 160.320312 90.285156 160.425781 90.421875 160.414062 " fill-opacity="1" fill-rule="nonzero"/></g></g></g><g fill="#63b32e" fill-opacity="0.4"><g transform="translate(156.718691, 197.190148)"><g><path d="M 27.140625 -5.765625 L 14.4375 -5.765625 L 12.546875 0 L 0 0 L 13.953125 -38.125 L 27.734375 -38.125 L 41.640625 0 L 29.03125 0 Z M 24.234375 -14.75 L 20.796875 -25.375 L 17.34375 -14.75 Z M 24.234375 -14.75 "/></g></g></g><g fill="#63b32e" fill-opacity="0.4"><g transform="translate(204.115616, 197.190148)"><g><path d="M 1.609375 -19.125 C 1.609375 -22.894531 2.367188 -26.25 3.890625 -29.1875 C 5.421875 -32.132812 7.601562 -34.425781 10.4375 -36.0625 C 13.28125 -37.695312 16.625 -38.515625 20.46875 -38.515625 C 23.769531 -38.515625 26.722656 -37.894531 29.328125 -36.65625 C 31.929688 -35.414062 34.046875 -33.660156 35.671875 -31.390625 C 37.304688 -29.128906 38.394531 -26.492188 38.9375 -23.484375 L 26.34375 -23.484375 C 25.757812 -24.742188 24.9375 -25.722656 23.875 -26.421875 C 22.820312 -27.117188 21.613281 -27.46875 20.25 -27.46875 C 18.238281 -27.46875 16.648438 -26.710938 15.484375 -25.203125 C 14.316406 -23.691406 13.734375 -21.664062 13.734375 -19.125 C 13.734375 -16.570312 14.316406 -14.539062 15.484375 -13.03125 C 16.648438 -11.519531 18.238281 -10.765625 20.25 -10.765625 C 21.613281 -10.765625 22.820312 -11.113281 23.875 -11.8125 C 24.9375 -12.519531 25.757812 -13.5 26.34375 -14.75 L 38.9375 -14.75 C 38.394531 -11.738281 37.304688 -9.101562 35.671875 -6.84375 C 34.046875 -4.582031 31.929688 -2.832031 29.328125 -1.59375 C 26.722656 -0.351562 23.769531 0.265625 20.46875 0.265625 C 16.625 0.265625 13.28125 -0.546875 10.4375 -2.171875 C 7.601562 -3.804688 5.421875 -6.097656 3.890625 -9.046875 C 2.367188 -11.992188 1.609375 -15.351562 1.609375 -19.125 Z M 1.609375 -19.125 "/></g></g></g><g fill="#63b32e" fill-opacity="0.4"><g transform="translate(250.435365, 197.190148)"><g><path d="M 14.65625 -28.59375 L 14.65625 -23.90625 L 26.5 -23.90625 L 26.5 -14.921875 L 14.65625 -14.921875 L 14.65625 -9.53125 L 28.109375 -9.53125 L 28.109375 0 L 2.6875 0 L 2.6875 -38.125 L 28.109375 -38.125 L 28.109375 -28.59375 Z M 14.65625 -28.59375 "/></g></g></g><g fill="#63b32e" fill-opacity="0.4"><g transform="translate(286.144826, 197.190148)"><g><path d="M 39.265625 0 L 27.3125 0 L 14.65625 -19.171875 L 14.65625 0 L 2.6875 0 L 2.6875 -38.125 L 14.65625 -38.125 L 27.3125 -18.640625 L 27.3125 -38.125 L 39.265625 -38.125 Z M 39.265625 0 "/></g></g></g><g fill="#03320a" fill-opacity="1"><g transform="translate(156.718691, 197.190148)"><g><path d="M 27.140625 -5.765625 L 14.4375 -5.765625 L 12.546875 0 L 0 0 L 13.953125 -38.125 L 27.734375 -38.125 L 41.640625 0 L 29.03125 0 Z M 24.234375 -14.75 L 20.796875 -25.375 L 17.34375 -14.75 Z M 24.234375 -14.75 "/></g></g></g><g fill="#03320a" fill-opacity="1"><g transform="translate(204.115616, 197.190148)"><g><path d="M 1.609375 -19.125 C 1.609375 -22.894531 2.367188 -26.25 3.890625 -29.1875 C 5.421875 -32.132812 7.601562 -34.425781 10.4375 -36.0625 C 13.28125 -37.695312 16.625 -38.515625 20.46875 -38.515625 C 23.769531 -38.515625 26.722656 -37.894531 29.328125 -36.65625 C 31.929688 -35.414062 34.046875 -33.660156 35.671875 -31.390625 C 37.304688 -29.128906 38.394531 -26.492188 38.9375 -23.484375 L 26.34375 -23.484375 C 25.757812 -24.742188 24.9375 -25.722656 23.875 -26.421875 C 22.820312 -27.117188 21.613281 -27.46875 20.25 -27.46875 C 18.238281 -27.46875 16.648438 -26.710938 15.484375 -25.203125 C 14.316406 -23.691406 13.734375 -21.664062 13.734375 -19.125 C 13.734375 -16.570312 14.316406 -14.539062 15.484375 -13.03125 C 16.648438 -11.519531 18.238281 -10.765625 20.25 -10.765625 C 21.613281 -10.765625 22.820312 -11.113281 23.875 -11.8125 C 24.9375 -12.519531 25.757812 -13.5 26.34375 -14.75 L 38.9375 -14.75 C 38.394531 -11.738281 37.304688 -9.101562 35.671875 -6.84375 C 34.046875 -4.582031 31.929688 -2.832031 29.328125 -1.59375 C 26.722656 -0.351562 23.769531 0.265625 20.46875 0.265625 C 16.625 0.265625 13.28125 -0.546875 10.4375 -2.171875 C 7.601562 -3.804688 5.421875 -6.097656 3.890625 -9.046875 C 2.367188 -11.992188 1.609375 -15.351562 1.609375 -19.125 Z M 1.609375 -19.125 "/></g></g></g><g fill="#03320a" fill-opacity="1"><g transform="translate(250.435365, 197.190148)"><g><path d="M 14.65625 -28.59375 L 14.65625 -23.90625 L 26.5 -23.90625 L 26.5 -14.921875 L 14.65625 -14.921875 L 14.65625 -9.53125 L 28.109375 -9.53125 L 28.109375 0 L 2.6875 0 L 2.6875 -38.125 L 28.109375 -38.125 L 28.109375 -28.59375 Z M 14.65625 -28.59375 "/></g></g></g><g fill="#03320a" fill-opacity="1"><g transform="translate(286.144826, 197.190148)"><g><path d="M 39.265625 0 L 27.3125 0 L 14.65625 -19.171875 L 14.65625 0 L 2.6875 0 L 2.6875 -38.125 L 14.65625 -38.125 L 27.3125 -18.640625 L 27.3125 -38.125 L 39.265625 -38.125 Z M 39.265625 0 "/></g></g></g><g fill="#f47068" fill-opacity="1"><g transform="translate(156.718691, 213.553491)"><g><path d="M 4.9375 -1.453125 L 1.78125 -1.453125 L 1.15625 0 L -0.046875 0 L 2.796875 -6.296875 L 3.9375 -6.296875 L 6.78125 0 L 5.5625 0 Z M 4.546875 -2.375 L 3.359375 -5.125 L 2.171875 -2.375 Z M 4.546875 -2.375 "/></g></g></g><g fill="#f47068" fill-opacity="1"><g transform="translate(164.161741, 213.553491)"><g><path d="M 2.6875 -5.828125 C 2.21875 -5.828125 1.984375 -5.570312 1.984375 -5.0625 L 1.984375 -4.765625 L 3.296875 -4.765625 L 3.296875 -3.875 L 2.015625 -3.875 L 2.015625 0 L 0.890625 0 L 0.890625 -3.875 L 0.09375 -3.875 L 0.09375 -4.765625 L 0.890625 -4.765625 L 0.890625 -5.078125 C 0.890625 -5.585938 1.039062 -5.988281 1.34375 -6.28125 C 1.644531 -6.582031 2.066406 -6.734375 2.609375 -6.734375 C 3.046875 -6.734375 3.382812 -6.648438 3.625 -6.484375 L 3.3125 -5.640625 C 3.125 -5.765625 2.914062 -5.828125 2.6875 -5.828125 Z M 2.6875 -5.828125 "/></g></g></g><g fill="#393536" fill-opacity="1"><g transform="translate(168.191347, 213.553491)"><g><path d="M 1.8125 -4.109375 C 2.132812 -4.609375 2.703125 -4.859375 3.515625 -4.859375 L 3.515625 -3.78125 C 3.421875 -3.800781 3.335938 -3.8125 3.265625 -3.8125 C 2.816406 -3.8125 2.46875 -3.679688 2.21875 -3.421875 C 1.976562 -3.171875 1.859375 -2.804688 1.859375 -2.328125 L 1.859375 0 L 0.734375 0 L 0.734375 -4.8125 L 1.8125 -4.8125 Z M 1.8125 -4.109375 "/></g></g></g><g fill="#393536" fill-opacity="1"><g transform="translate(172.673375, 213.553491)"><g><path d="M 0.734375 -4.8125 L 1.859375 -4.8125 L 1.859375 0 L 0.734375 0 Z M 1.296875 -5.59375 C 1.097656 -5.59375 0.925781 -5.65625 0.78125 -5.78125 C 0.644531 -5.914062 0.578125 -6.078125 0.578125 -6.265625 C 0.578125 -6.460938 0.644531 -6.625 0.78125 -6.75 C 0.925781 -6.882812 1.097656 -6.953125 1.296875 -6.953125 C 1.503906 -6.953125 1.675781 -6.890625 1.8125 -6.765625 C 1.945312 -6.640625 2.015625 -6.484375 2.015625 -6.296875 C 2.015625 -6.097656 1.945312 -5.929688 1.8125 -5.796875 C 1.675781 -5.660156 1.503906 -5.59375 1.296875 -5.59375 Z M 1.296875 -5.59375 "/></g></g></g><g fill="#393536" fill-opacity="1"><g transform="translate(175.976388, 213.553491)"><g><path d="M 2.9375 0.0625 C 2.445312 0.0625 2.003906 -0.0390625 1.609375 -0.25 C 1.210938 -0.457031 0.898438 -0.75 0.671875 -1.125 C 0.453125 -1.5 0.34375 -1.925781 0.34375 -2.40625 C 0.34375 -2.875 0.453125 -3.296875 0.671875 -3.671875 C 0.898438 -4.046875 1.207031 -4.335938 1.59375 -4.546875 C 1.988281 -4.753906 2.4375 -4.859375 2.9375 -4.859375 C 3.414062 -4.859375 3.832031 -4.757812 4.1875 -4.5625 C 4.539062 -4.375 4.8125 -4.101562 5 -3.75 L 4.125 -3.234375 C 3.988281 -3.460938 3.816406 -3.628906 3.609375 -3.734375 C 3.398438 -3.847656 3.175781 -3.90625 2.9375 -3.90625 C 2.507812 -3.90625 2.15625 -3.769531 1.875 -3.5 C 1.601562 -3.226562 1.46875 -2.863281 1.46875 -2.40625 C 1.46875 -1.945312 1.601562 -1.582031 1.875 -1.3125 C 2.15625 -1.039062 2.507812 -0.90625 2.9375 -0.90625 C 3.175781 -0.90625 3.398438 -0.957031 3.609375 -1.0625 C 3.816406 -1.175781 3.988281 -1.34375 4.125 -1.5625 L 5 -1.0625 C 4.8125 -0.695312 4.535156 -0.414062 4.171875 -0.21875 C 3.816406 -0.03125 3.40625 0.0625 2.9375 0.0625 Z M 2.9375 0.0625 "/></g></g></g><g fill="#393536" fill-opacity="1"><g transform="translate(181.907421, 213.553491)"><g><path d="M 2.578125 -4.859375 C 3.285156 -4.859375 3.828125 -4.6875 4.203125 -4.34375 C 4.578125 -4.007812 4.765625 -3.5 4.765625 -2.8125 L 4.765625 0 L 3.703125 0 L 3.703125 -0.578125 C 3.554688 -0.367188 3.359375 -0.207031 3.109375 -0.09375 C 2.859375 0.0078125 2.550781 0.0625 2.1875 0.0625 C 1.820312 0.0625 1.503906 0 1.234375 -0.125 C 0.972656 -0.25 0.765625 -0.421875 0.609375 -0.640625 C 0.460938 -0.859375 0.390625 -1.101562 0.390625 -1.375 C 0.390625 -1.8125 0.550781 -2.160156 0.875 -2.421875 C 1.195312 -2.679688 1.703125 -2.8125 2.390625 -2.8125 L 3.640625 -2.8125 L 3.640625 -2.875 C 3.640625 -3.21875 3.535156 -3.476562 3.328125 -3.65625 C 3.128906 -3.832031 2.832031 -3.921875 2.4375 -3.921875 C 2.164062 -3.921875 1.898438 -3.878906 1.640625 -3.796875 C 1.378906 -3.710938 1.160156 -3.597656 0.984375 -3.453125 L 0.546875 -4.265625 C 0.796875 -4.453125 1.097656 -4.597656 1.453125 -4.703125 C 1.804688 -4.804688 2.179688 -4.859375 2.578125 -4.859375 Z M 2.421875 -0.75 C 2.703125 -0.75 2.953125 -0.8125 3.171875 -0.9375 C 3.390625 -1.070312 3.546875 -1.257812 3.640625 -1.5 L 3.640625 -2.0625 L 2.46875 -2.0625 C 1.820312 -2.0625 1.5 -1.847656 1.5 -1.421875 C 1.5 -1.210938 1.578125 -1.046875 1.734375 -0.921875 C 1.898438 -0.804688 2.128906 -0.75 2.421875 -0.75 Z M 2.421875 -0.75 "/></g></g></g><g fill="#393536" fill-opacity="1"><g transform="translate(188.072465, 213.553491)"><g/></g></g><g fill="#f47068" fill-opacity="1"><g transform="translate(191.265564, 213.553491)"><g><path d="M 3.765625 0.09375 C 3.128906 0.09375 2.550781 -0.046875 2.03125 -0.328125 C 1.519531 -0.609375 1.117188 -0.992188 0.828125 -1.484375 C 0.535156 -1.972656 0.390625 -2.53125 0.390625 -3.15625 C 0.390625 -3.769531 0.535156 -4.320312 0.828125 -4.8125 C 1.128906 -5.300781 1.535156 -5.6875 2.046875 -5.96875 C 2.554688 -6.25 3.128906 -6.390625 3.765625 -6.390625 C 4.285156 -6.390625 4.757812 -6.296875 5.1875 -6.109375 C 5.613281 -5.929688 5.972656 -5.675781 6.265625 -5.34375 L 5.515625 -4.625 C 5.054688 -5.113281 4.492188 -5.359375 3.828125 -5.359375 C 3.390625 -5.359375 3 -5.265625 2.65625 -5.078125 C 2.320312 -4.890625 2.054688 -4.625 1.859375 -4.28125 C 1.671875 -3.945312 1.578125 -3.570312 1.578125 -3.15625 C 1.578125 -2.726562 1.671875 -2.34375 1.859375 -2 C 2.054688 -1.664062 2.320312 -1.40625 2.65625 -1.21875 C 3 -1.03125 3.390625 -0.9375 3.828125 -0.9375 C 4.492188 -0.9375 5.054688 -1.1875 5.515625 -1.6875 L 6.265625 -0.96875 C 5.972656 -0.625 5.609375 -0.359375 5.171875 -0.171875 C 4.742188 0.00390625 4.273438 0.09375 3.765625 0.09375 Z M 3.765625 0.09375 "/></g></g></g><g fill="#393536" fill-opacity="1"><g transform="translate(198.51947, 213.553491)"><g><path d="M 0.734375 -6.671875 L 1.859375 -6.671875 L 1.859375 0 L 0.734375 0 Z M 0.734375 -6.671875 "/></g></g></g><g fill="#393536" fill-opacity="1"><g transform="translate(201.822482, 213.553491)"><g><path d="M 0.734375 -4.8125 L 1.859375 -4.8125 L 1.859375 0 L 0.734375 0 Z M 1.296875 -5.59375 C 1.097656 -5.59375 0.925781 -5.65625 0.78125 -5.78125 C 0.644531 -5.914062 0.578125 -6.078125 0.578125 -6.265625 C 0.578125 -6.460938 0.644531 -6.625 0.78125 -6.75 C 0.925781 -6.882812 1.097656 -6.953125 1.296875 -6.953125 C 1.503906 -6.953125 1.675781 -6.890625 1.8125 -6.765625 C 1.945312 -6.640625 2.015625 -6.484375 2.015625 -6.296875 C 2.015625 -6.097656 1.945312 -5.929688 1.8125 -5.796875 C 1.675781 -5.660156 1.503906 -5.59375 1.296875 -5.59375 Z M 1.296875 -5.59375 "/></g></g></g><g fill="#393536" fill-opacity="1"><g transform="translate(205.125495, 213.553491)"><g><path d="M 6.796875 -4.859375 C 7.410156 -4.859375 7.894531 -4.679688 8.25 -4.328125 C 8.601562 -3.984375 8.78125 -3.457031 8.78125 -2.75 L 8.78125 0 L 7.65625 0 L 7.65625 -2.609375 C 7.65625 -3.023438 7.5625 -3.335938 7.375 -3.546875 C 7.1875 -3.765625 6.914062 -3.875 6.5625 -3.875 C 6.1875 -3.875 5.882812 -3.75 5.65625 -3.5 C 5.425781 -3.25 5.3125 -2.894531 5.3125 -2.4375 L 5.3125 0 L 4.1875 0 L 4.1875 -2.609375 C 4.1875 -3.023438 4.09375 -3.335938 3.90625 -3.546875 C 3.726562 -3.765625 3.460938 -3.875 3.109375 -3.875 C 2.722656 -3.875 2.414062 -3.75 2.1875 -3.5 C 1.96875 -3.257812 1.859375 -2.90625 1.859375 -2.4375 L 1.859375 0 L 0.734375 0 L 0.734375 -4.8125 L 1.8125 -4.8125 L 1.8125 -4.1875 C 1.988281 -4.40625 2.210938 -4.570312 2.484375 -4.6875 C 2.753906 -4.800781 3.054688 -4.859375 3.390625 -4.859375 C 3.742188 -4.859375 4.0625 -4.789062 4.34375 -4.65625 C 4.625 -4.519531 4.84375 -4.320312 5 -4.0625 C 5.195312 -4.3125 5.453125 -4.503906 5.765625 -4.640625 C 6.078125 -4.785156 6.421875 -4.859375 6.796875 -4.859375 Z M 6.796875 -4.859375 "/></g></g></g><g fill="#393536" fill-opacity="1"><g transform="translate(215.304564, 213.553491)"><g><path d="M 2.578125 -4.859375 C 3.285156 -4.859375 3.828125 -4.6875 4.203125 -4.34375 C 4.578125 -4.007812 4.765625 -3.5 4.765625 -2.8125 L 4.765625 0 L 3.703125 0 L 3.703125 -0.578125 C 3.554688 -0.367188 3.359375 -0.207031 3.109375 -0.09375 C 2.859375 0.0078125 2.550781 0.0625 2.1875 0.0625 C 1.820312 0.0625 1.503906 0 1.234375 -0.125 C 0.972656 -0.25 0.765625 -0.421875 0.609375 -0.640625 C 0.460938 -0.859375 0.390625 -1.101562 0.390625 -1.375 C 0.390625 -1.8125 0.550781 -2.160156 0.875 -2.421875 C 1.195312 -2.679688 1.703125 -2.8125 2.390625 -2.8125 L 3.640625 -2.8125 L 3.640625 -2.875 C 3.640625 -3.21875 3.535156 -3.476562 3.328125 -3.65625 C 3.128906 -3.832031 2.832031 -3.921875 2.4375 -3.921875 C 2.164062 -3.921875 1.898438 -3.878906 1.640625 -3.796875 C 1.378906 -3.710938 1.160156 -3.597656 0.984375 -3.453125 L 0.546875 -4.265625 C 0.796875 -4.453125 1.097656 -4.597656 1.453125 -4.703125 C 1.804688 -4.804688 2.179688 -4.859375 2.578125 -4.859375 Z M 2.421875 -0.75 C 2.703125 -0.75 2.953125 -0.8125 3.171875 -0.9375 C 3.390625 -1.070312 3.546875 -1.257812 3.640625 -1.5 L 3.640625 -2.0625 L 2.46875 -2.0625 C 1.820312 -2.0625 1.5 -1.847656 1.5 -1.421875 C 1.5 -1.210938 1.578125 -1.046875 1.734375 -0.921875 C 1.898438 -0.804688 2.128906 -0.75 2.421875 -0.75 Z M 2.421875 -0.75 "/></g></g></g><g fill="#393536" fill-opacity="1"><g transform="translate(221.469607, 213.553491)"><g><path d="M 3.625 -0.265625 C 3.488281 -0.148438 3.328125 -0.0664062 3.140625 -0.015625 C 2.953125 0.0351562 2.753906 0.0625 2.546875 0.0625 C 2.015625 0.0625 1.601562 -0.0703125 1.3125 -0.34375 C 1.03125 -0.625 0.890625 -1.03125 0.890625 -1.5625 L 0.890625 -3.875 L 0.09375 -3.875 L 0.09375 -4.765625 L 0.890625 -4.765625 L 0.890625 -5.875 L 2.015625 -5.875 L 2.015625 -4.765625 L 3.296875 -4.765625 L 3.296875 -3.875 L 2.015625 -3.875 L 2.015625 -1.578125 C 2.015625 -1.347656 2.070312 -1.171875 2.1875 -1.046875 C 2.300781 -0.921875 2.46875 -0.859375 2.6875 -0.859375 C 2.9375 -0.859375 3.144531 -0.925781 3.3125 -1.0625 Z M 3.625 -0.265625 "/></g></g></g><g fill="#393536" fill-opacity="1"><g transform="translate(225.98764, 213.553491)"><g><path d="M 5.25 -2.375 C 5.25 -2.300781 5.242188 -2.191406 5.234375 -2.046875 L 1.46875 -2.046875 C 1.53125 -1.691406 1.703125 -1.410156 1.984375 -1.203125 C 2.265625 -0.992188 2.613281 -0.890625 3.03125 -0.890625 C 3.550781 -0.890625 3.984375 -1.0625 4.328125 -1.40625 L 4.9375 -0.71875 C 4.71875 -0.457031 4.441406 -0.257812 4.109375 -0.125 C 3.785156 0 3.414062 0.0625 3 0.0625 C 2.46875 0.0625 2 -0.0390625 1.59375 -0.25 C 1.195312 -0.457031 0.890625 -0.75 0.671875 -1.125 C 0.453125 -1.5 0.34375 -1.925781 0.34375 -2.40625 C 0.34375 -2.875 0.445312 -3.296875 0.65625 -3.671875 C 0.875 -4.046875 1.171875 -4.335938 1.546875 -4.546875 C 1.921875 -4.753906 2.347656 -4.859375 2.828125 -4.859375 C 3.296875 -4.859375 3.710938 -4.753906 4.078125 -4.546875 C 4.453125 -4.335938 4.738281 -4.046875 4.9375 -3.671875 C 5.144531 -3.296875 5.25 -2.863281 5.25 -2.375 Z M 2.828125 -3.953125 C 2.460938 -3.953125 2.15625 -3.847656 1.90625 -3.640625 C 1.65625 -3.429688 1.503906 -3.148438 1.453125 -2.796875 L 4.1875 -2.796875 C 4.132812 -3.140625 3.984375 -3.414062 3.734375 -3.625 C 3.492188 -3.84375 3.191406 -3.953125 2.828125 -3.953125 Z M 2.828125 -3.953125 "/></g></g></g><g fill="#393536" fill-opacity="1"><g transform="translate(232.287678, 213.553491)"><g/></g></g><g fill="#393536" fill-opacity="1"><g transform="translate(235.473698, 213.553491)"><g><path d="M 2.578125 -4.859375 C 3.285156 -4.859375 3.828125 -4.6875 4.203125 -4.34375 C 4.578125 -4.007812 4.765625 -3.5 4.765625 -2.8125 L 4.765625 0 L 3.703125 0 L 3.703125 -0.578125 C 3.554688 -0.367188 3.359375 -0.207031 3.109375 -0.09375 C 2.859375 0.0078125 2.550781 0.0625 2.1875 0.0625 C 1.820312 0.0625 1.503906 0 1.234375 -0.125 C 0.972656 -0.25 0.765625 -0.421875 0.609375 -0.640625 C 0.460938 -0.859375 0.390625 -1.101562 0.390625 -1.375 C 0.390625 -1.8125 0.550781 -2.160156 0.875 -2.421875 C 1.195312 -2.679688 1.703125 -2.8125 2.390625 -2.8125 L 3.640625 -2.8125 L 3.640625 -2.875 C 3.640625 -3.21875 3.535156 -3.476562 3.328125 -3.65625 C 3.128906 -3.832031 2.832031 -3.921875 2.4375 -3.921875 C 2.164062 -3.921875 1.898438 -3.878906 1.640625 -3.796875 C 1.378906 -3.710938 1.160156 -3.597656 0.984375 -3.453125 L 0.546875 -4.265625 C 0.796875 -4.453125 1.097656 -4.597656 1.453125 -4.703125 C 1.804688 -4.804688 2.179688 -4.859375 2.578125 -4.859375 Z M 2.421875 -0.75 C 2.703125 -0.75 2.953125 -0.8125 3.171875 -0.9375 C 3.390625 -1.070312 3.546875 -1.257812 3.640625 -1.5 L 3.640625 -2.0625 L 2.46875 -2.0625 C 1.820312 -2.0625 1.5 -1.847656 1.5 -1.421875 C 1.5 -1.210938 1.578125 -1.046875 1.734375 -0.921875 C 1.898438 -0.804688 2.128906 -0.75 2.421875 -0.75 Z M 2.421875 -0.75 "/></g></g></g><g fill="#393536" fill-opacity="1"><g transform="translate(241.638742, 213.553491)"><g><path d="M 3.46875 -4.859375 C 4.070312 -4.859375 4.554688 -4.679688 4.921875 -4.328125 C 5.285156 -3.972656 5.46875 -3.445312 5.46875 -2.75 L 5.46875 0 L 4.34375 0 L 4.34375 -2.609375 C 4.34375 -3.023438 4.242188 -3.335938 4.046875 -3.546875 C 3.847656 -3.765625 3.566406 -3.875 3.203125 -3.875 C 2.785156 -3.875 2.457031 -3.75 2.21875 -3.5 C 1.976562 -3.25 1.859375 -2.894531 1.859375 -2.4375 L 1.859375 0 L 0.734375 0 L 0.734375 -4.8125 L 1.8125 -4.8125 L 1.8125 -4.1875 C 2 -4.40625 2.234375 -4.570312 2.515625 -4.6875 C 2.796875 -4.800781 3.113281 -4.859375 3.46875 -4.859375 Z M 3.46875 -4.859375 "/></g></g></g><g fill="#393536" fill-opacity="1"><g transform="translate(248.505789, 213.553491)"><g><path d="M 5.4375 -6.671875 L 5.4375 0 L 4.359375 0 L 4.359375 -0.625 C 4.179688 -0.394531 3.953125 -0.222656 3.671875 -0.109375 C 3.398438 0.00390625 3.097656 0.0625 2.765625 0.0625 C 2.304688 0.0625 1.890625 -0.0351562 1.515625 -0.234375 C 1.148438 -0.441406 0.863281 -0.734375 0.65625 -1.109375 C 0.445312 -1.484375 0.34375 -1.914062 0.34375 -2.40625 C 0.34375 -2.882812 0.445312 -3.3125 0.65625 -3.6875 C 0.863281 -4.0625 1.148438 -4.347656 1.515625 -4.546875 C 1.890625 -4.753906 2.304688 -4.859375 2.765625 -4.859375 C 3.085938 -4.859375 3.378906 -4.800781 3.640625 -4.6875 C 3.910156 -4.582031 4.132812 -4.425781 4.3125 -4.21875 L 4.3125 -6.671875 Z M 2.90625 -0.90625 C 3.175781 -0.90625 3.414062 -0.960938 3.625 -1.078125 C 3.84375 -1.203125 4.015625 -1.378906 4.140625 -1.609375 C 4.273438 -1.835938 4.34375 -2.101562 4.34375 -2.40625 C 4.34375 -2.707031 4.273438 -2.96875 4.140625 -3.1875 C 4.015625 -3.414062 3.84375 -3.59375 3.625 -3.71875 C 3.414062 -3.84375 3.175781 -3.90625 2.90625 -3.90625 C 2.632812 -3.90625 2.390625 -3.84375 2.171875 -3.71875 C 1.960938 -3.59375 1.789062 -3.414062 1.65625 -3.1875 C 1.53125 -2.96875 1.46875 -2.707031 1.46875 -2.40625 C 1.46875 -2.101562 1.53125 -1.835938 1.65625 -1.609375 C 1.789062 -1.378906 1.960938 -1.203125 2.171875 -1.078125 C 2.390625 -0.960938 2.632812 -0.90625 2.90625 -0.90625 Z M 2.90625 -0.90625 "/></g></g></g><g fill="#393536" fill-opacity="1"><g transform="translate(255.390834, 213.553491)"><g/></g></g><g fill="#f47068" fill-opacity="1"><g transform="translate(258.578059, 213.553491)"><g><path d="M 5.578125 -0.984375 L 5.578125 0 L 0.84375 0 L 0.84375 -6.296875 L 5.4375 -6.296875 L 5.4375 -5.3125 L 2.015625 -5.3125 L 2.015625 -3.6875 L 5.0625 -3.6875 L 5.0625 -2.71875 L 2.015625 -2.71875 L 2.015625 -0.984375 Z M 5.578125 -0.984375 "/></g></g></g><g fill="#393536" fill-opacity="1"><g transform="translate(265.31634, 213.553491)"><g><path d="M 3.46875 -4.859375 C 4.070312 -4.859375 4.554688 -4.679688 4.921875 -4.328125 C 5.285156 -3.972656 5.46875 -3.445312 5.46875 -2.75 L 5.46875 0 L 4.34375 0 L 4.34375 -2.609375 C 4.34375 -3.023438 4.242188 -3.335938 4.046875 -3.546875 C 3.847656 -3.765625 3.566406 -3.875 3.203125 -3.875 C 2.785156 -3.875 2.457031 -3.75 2.21875 -3.5 C 1.976562 -3.25 1.859375 -2.894531 1.859375 -2.4375 L 1.859375 0 L 0.734375 0 L 0.734375 -4.8125 L 1.8125 -4.8125 L 1.8125 -4.1875 C 2 -4.40625 2.234375 -4.570312 2.515625 -4.6875 C 2.796875 -4.800781 3.113281 -4.859375 3.46875 -4.859375 Z M 3.46875 -4.859375 "/></g></g></g><g fill="#393536" fill-opacity="1"><g transform="translate(272.183386, 213.553491)"><g><path d="M 5.25 -2.375 C 5.25 -2.300781 5.242188 -2.191406 5.234375 -2.046875 L 1.46875 -2.046875 C 1.53125 -1.691406 1.703125 -1.410156 1.984375 -1.203125 C 2.265625 -0.992188 2.613281 -0.890625 3.03125 -0.890625 C 3.550781 -0.890625 3.984375 -1.0625 4.328125 -1.40625 L 4.9375 -0.71875 C 4.71875 -0.457031 4.441406 -0.257812 4.109375 -0.125 C 3.785156 0 3.414062 0.0625 3 0.0625 C 2.46875 0.0625 2 -0.0390625 1.59375 -0.25 C 1.195312 -0.457031 0.890625 -0.75 0.671875 -1.125 C 0.453125 -1.5 0.34375 -1.925781 0.34375 -2.40625 C 0.34375 -2.875 0.445312 -3.296875 0.65625 -3.671875 C 0.875 -4.046875 1.171875 -4.335938 1.546875 -4.546875 C 1.921875 -4.753906 2.347656 -4.859375 2.828125 -4.859375 C 3.296875 -4.859375 3.710938 -4.753906 4.078125 -4.546875 C 4.453125 -4.335938 4.738281 -4.046875 4.9375 -3.671875 C 5.144531 -3.296875 5.25 -2.863281 5.25 -2.375 Z M 2.828125 -3.953125 C 2.460938 -3.953125 2.15625 -3.847656 1.90625 -3.640625 C 1.65625 -3.429688 1.503906 -3.148438 1.453125 -2.796875 L 4.1875 -2.796875 C 4.132812 -3.140625 3.984375 -3.414062 3.734375 -3.625 C 3.492188 -3.84375 3.191406 -3.953125 2.828125 -3.953125 Z M 2.828125 -3.953125 "/></g></g></g><g fill="#393536" fill-opacity="1"><g transform="translate(278.483423, 213.553491)"><g><path d="M 1.8125 -4.109375 C 2.132812 -4.609375 2.703125 -4.859375 3.515625 -4.859375 L 3.515625 -3.78125 C 3.421875 -3.800781 3.335938 -3.8125 3.265625 -3.8125 C 2.816406 -3.8125 2.46875 -3.679688 2.21875 -3.421875 C 1.976562 -3.171875 1.859375 -2.804688 1.859375 -2.328125 L 1.859375 0 L 0.734375 0 L 0.734375 -4.8125 L 1.8125 -4.8125 Z M 1.8125 -4.109375 "/></g></g></g><g fill="#393536" fill-opacity="1"><g transform="translate(282.965452, 213.553491)"><g><path d="M 5.515625 -4.8125 L 5.515625 -0.734375 C 5.515625 0.960938 4.648438 1.8125 2.921875 1.8125 C 2.453125 1.8125 2.007812 1.75 1.59375 1.625 C 1.1875 1.507812 0.847656 1.34375 0.578125 1.125 L 1.078125 0.28125 C 1.285156 0.457031 1.550781 0.597656 1.875 0.703125 C 2.195312 0.804688 2.523438 0.859375 2.859375 0.859375 C 3.378906 0.859375 3.765625 0.738281 4.015625 0.5 C 4.265625 0.257812 4.390625 -0.109375 4.390625 -0.609375 L 4.390625 -0.859375 C 4.191406 -0.648438 3.953125 -0.488281 3.671875 -0.375 C 3.398438 -0.269531 3.097656 -0.21875 2.765625 -0.21875 C 2.316406 -0.21875 1.90625 -0.3125 1.53125 -0.5 C 1.164062 -0.695312 0.875 -0.972656 0.65625 -1.328125 C 0.445312 -1.679688 0.34375 -2.085938 0.34375 -2.546875 C 0.34375 -3.003906 0.445312 -3.40625 0.65625 -3.75 C 0.875 -4.101562 1.164062 -4.375 1.53125 -4.5625 C 1.90625 -4.757812 2.316406 -4.859375 2.765625 -4.859375 C 3.117188 -4.859375 3.4375 -4.800781 3.71875 -4.6875 C 4.007812 -4.570312 4.25 -4.398438 4.4375 -4.171875 L 4.4375 -4.8125 Z M 2.9375 -1.171875 C 3.363281 -1.171875 3.710938 -1.296875 3.984375 -1.546875 C 4.265625 -1.804688 4.40625 -2.140625 4.40625 -2.546875 C 4.40625 -2.953125 4.265625 -3.28125 3.984375 -3.53125 C 3.710938 -3.78125 3.363281 -3.90625 2.9375 -3.90625 C 2.507812 -3.90625 2.15625 -3.78125 1.875 -3.53125 C 1.601562 -3.28125 1.46875 -2.953125 1.46875 -2.546875 C 1.46875 -2.140625 1.601562 -1.804688 1.875 -1.546875 C 2.15625 -1.296875 2.507812 -1.171875 2.9375 -1.171875 Z M 2.9375 -1.171875 "/></g></g></g><g fill="#393536" fill-opacity="1"><g transform="translate(289.9135, 213.553491)"><g><path d="M 5.234375 -4.8125 L 2.984375 0.390625 C 2.773438 0.910156 2.519531 1.273438 2.21875 1.484375 C 1.914062 1.703125 1.554688 1.8125 1.140625 1.8125 C 0.898438 1.8125 0.660156 1.769531 0.421875 1.6875 C 0.191406 1.613281 0 1.507812 -0.15625 1.375 L 0.296875 0.546875 C 0.398438 0.640625 0.523438 0.71875 0.671875 0.78125 C 0.828125 0.84375 0.976562 0.875 1.125 0.875 C 1.320312 0.875 1.484375 0.820312 1.609375 0.71875 C 1.742188 0.613281 1.863281 0.441406 1.96875 0.203125 L 2.046875 0.015625 L -0.046875 -4.8125 L 1.125 -4.8125 L 2.640625 -1.25 L 4.15625 -4.8125 Z M 5.234375 -4.8125 "/></g></g></g><g fill="#393536" fill-opacity="1"><g transform="translate(295.817538, 213.553491)"><g/></g></g><g fill="#f47068" fill-opacity="1"><g transform="translate(299.007744, 213.553491)"><g><path d="M 6.4375 -6.296875 L 6.4375 0 L 5.484375 0 L 2 -4.265625 L 2 0 L 0.84375 0 L 0.84375 -6.296875 L 1.8125 -6.296875 L 5.28125 -2.03125 L 5.28125 -6.296875 Z M 6.4375 -6.296875 "/></g></g></g><g fill="#393536" fill-opacity="1"><g transform="translate(306.999931, 213.553491)"><g><path d="M 5.25 -2.375 C 5.25 -2.300781 5.242188 -2.191406 5.234375 -2.046875 L 1.46875 -2.046875 C 1.53125 -1.691406 1.703125 -1.410156 1.984375 -1.203125 C 2.265625 -0.992188 2.613281 -0.890625 3.03125 -0.890625 C 3.550781 -0.890625 3.984375 -1.0625 4.328125 -1.40625 L 4.9375 -0.71875 C 4.71875 -0.457031 4.441406 -0.257812 4.109375 -0.125 C 3.785156 0 3.414062 0.0625 3 0.0625 C 2.46875 0.0625 2 -0.0390625 1.59375 -0.25 C 1.195312 -0.457031 0.890625 -0.75 0.671875 -1.125 C 0.453125 -1.5 0.34375 -1.925781 0.34375 -2.40625 C 0.34375 -2.875 0.445312 -3.296875 0.65625 -3.671875 C 0.875 -4.046875 1.171875 -4.335938 1.546875 -4.546875 C 1.921875 -4.753906 2.347656 -4.859375 2.828125 -4.859375 C 3.296875 -4.859375 3.710938 -4.753906 4.078125 -4.546875 C 4.453125 -4.335938 4.738281 -4.046875 4.9375 -3.671875 C 5.144531 -3.296875 5.25 -2.863281 5.25 -2.375 Z M 2.828125 -3.953125 C 2.460938 -3.953125 2.15625 -3.847656 1.90625 -3.640625 C 1.65625 -3.429688 1.503906 -3.148438 1.453125 -2.796875 L 4.1875 -2.796875 C 4.132812 -3.140625 3.984375 -3.414062 3.734375 -3.625 C 3.492188 -3.84375 3.191406 -3.953125 2.828125 -3.953125 Z M 2.828125 -3.953125 "/></g></g></g><g fill="#393536" fill-opacity="1"><g transform="translate(313.299968, 213.553491)"><g><path d="M 3.796875 0 L 2.5625 -1.671875 L 1.328125 0 L 0.078125 0 L 1.953125 -2.4375 L 0.15625 -4.8125 L 1.40625 -4.8125 L 2.59375 -3.234375 L 3.765625 -4.8125 L 4.984375 -4.8125 L 3.1875 -2.453125 L 5.0625 0 Z M 3.796875 0 "/></g></g></g><g fill="#393536" fill-opacity="1"><g transform="translate(319.159008, 213.553491)"><g><path d="M 5.390625 -4.8125 L 5.390625 0 L 4.3125 0 L 4.3125 -0.609375 C 4.132812 -0.390625 3.910156 -0.222656 3.640625 -0.109375 C 3.367188 0.00390625 3.078125 0.0625 2.765625 0.0625 C 2.128906 0.0625 1.625 -0.113281 1.25 -0.46875 C 0.882812 -0.832031 0.703125 -1.363281 0.703125 -2.0625 L 0.703125 -4.8125 L 1.828125 -4.8125 L 1.828125 -2.21875 C 1.828125 -1.78125 1.921875 -1.453125 2.109375 -1.234375 C 2.304688 -1.023438 2.585938 -0.921875 2.953125 -0.921875 C 3.359375 -0.921875 3.675781 -1.046875 3.90625 -1.296875 C 4.144531 -1.546875 4.265625 -1.90625 4.265625 -2.375 L 4.265625 -4.8125 Z M 5.390625 -4.8125 "/></g></g></g><g fill="#393536" fill-opacity="1"><g transform="translate(325.99005, 213.553491)"><g><path d="M 2.21875 0.0625 C 1.832031 0.0625 1.453125 0.0078125 1.078125 -0.09375 C 0.703125 -0.195312 0.40625 -0.328125 0.1875 -0.484375 L 0.625 -1.328125 C 0.832031 -1.179688 1.085938 -1.066406 1.390625 -0.984375 C 1.703125 -0.898438 2.003906 -0.859375 2.296875 -0.859375 C 2.960938 -0.859375 3.296875 -1.035156 3.296875 -1.390625 C 3.296875 -1.554688 3.210938 -1.671875 3.046875 -1.734375 C 2.878906 -1.804688 2.601562 -1.867188 2.21875 -1.921875 C 1.820312 -1.984375 1.5 -2.050781 1.25 -2.125 C 1 -2.207031 0.78125 -2.34375 0.59375 -2.53125 C 0.414062 -2.726562 0.328125 -3.003906 0.328125 -3.359375 C 0.328125 -3.816406 0.515625 -4.179688 0.890625 -4.453125 C 1.273438 -4.722656 1.796875 -4.859375 2.453125 -4.859375 C 2.773438 -4.859375 3.101562 -4.820312 3.4375 -4.75 C 3.769531 -4.675781 4.039062 -4.578125 4.25 -4.453125 L 3.8125 -3.59375 C 3.40625 -3.832031 2.945312 -3.953125 2.4375 -3.953125 C 2.101562 -3.953125 1.851562 -3.898438 1.6875 -3.796875 C 1.519531 -3.703125 1.4375 -3.570312 1.4375 -3.40625 C 1.4375 -3.226562 1.523438 -3.101562 1.703125 -3.03125 C 1.890625 -2.957031 2.175781 -2.882812 2.5625 -2.8125 C 2.9375 -2.757812 3.25 -2.691406 3.5 -2.609375 C 3.75 -2.535156 3.960938 -2.40625 4.140625 -2.21875 C 4.316406 -2.03125 4.40625 -1.765625 4.40625 -1.421875 C 4.40625 -0.972656 4.207031 -0.613281 3.8125 -0.34375 C 3.425781 -0.0703125 2.894531 0.0625 2.21875 0.0625 Z M 2.21875 0.0625 "/></g></g></g></svg>